<svg width="390" height="390" viewBox="0 0 390 390" fill="none" xmlns="http://www.w3.org/2000/svg">
<path d="M319.121 80.34C299.715 36.0906 253.133 19.4298 216.38 49.14C202.028 60.7308 193.073 79.1778 175.5 86.58C159.011 93.522 138.122 91.4784 120.292 95.238C82.3212 103.194 31.2 133.38 35.1 179.891C36.8082 200.265 50.5518 222.893 57.3456 241.956C65.1456 263.89 69.8256 291.33 90.4722 304.442C125.869 326.953 168.566 308.552 200.452 290.402C217.612 280.644 227.058 274.646 245.536 277.992C262.642 281.112 278.047 292.032 294.762 279.076C307.312 269.35 308.35 249.639 318.887 238.064C330.759 225.022 342.794 224.078 348.964 204.477C356.444 180.695 345.423 165.836 337.974 144.589C330.525 123.341 328.263 101.158 319.121 80.34Z" fill="#72DD4F"/>
<g opacity="0.7">
<path d="M319.121 80.34C299.715 36.0906 253.133 19.4298 216.38 49.14C202.028 60.7308 193.073 79.1778 175.5 86.58C159.011 93.522 138.122 91.4784 120.292 95.238C82.3212 103.194 31.2 133.38 35.1 179.891C36.8082 200.265 50.5518 222.893 57.3456 241.956C65.1456 263.89 69.8256 291.33 90.4722 304.442C125.869 326.953 168.566 308.552 200.452 290.402C217.612 280.644 227.058 274.646 245.536 277.992C262.642 281.112 278.047 292.032 294.762 279.076C307.312 269.35 308.35 249.639 318.887 238.064C330.759 225.022 342.794 224.078 348.964 204.477C356.444 180.695 345.423 165.836 337.974 144.589C330.525 123.341 328.263 101.158 319.121 80.34Z" fill="white"/>
</g>
<path d="M171.452 341.39C238.042 341.39 292.024 338.027 292.024 333.879C292.024 329.731 238.042 326.368 171.452 326.368C104.861 326.368 50.8794 329.731 50.8794 333.879C50.8794 338.027 104.861 341.39 171.452 341.39Z" fill="#72DD4F"/>
<path opacity="0.8" d="M171.452 341.39C238.042 341.39 292.024 338.027 292.024 333.879C292.024 329.731 238.042 326.368 171.452 326.368C104.861 326.368 50.8794 329.731 50.8794 333.879C50.8794 338.027 104.861 341.39 171.452 341.39Z" fill="white"/>
<path d="M262.057 48.2509H140.821C132.451 48.2509 125.666 55.0362 125.666 63.4063V319.355C125.666 327.726 132.451 334.511 140.821 334.511H262.057C270.427 334.511 277.212 327.726 277.212 319.355V63.4063C277.212 55.0362 270.427 48.2509 262.057 48.2509Z" fill="#263238"/>
<path d="M270.473 79.6848H132.397V303.077H270.473V79.6848Z" fill="white" stroke="#263238" stroke-width="1.33739" stroke-miterlimit="10"/>
<path d="M222.601 170.143C234.289 158.455 234.289 139.505 222.601 127.817C210.914 116.13 191.964 116.13 180.276 127.817C168.588 139.505 168.588 158.455 180.276 170.143C191.964 181.831 210.914 181.831 222.601 170.143Z" fill="#449C27"/>
<path d="M240.731 289.029H162.154C161.977 289.03 161.802 288.996 161.638 288.929C161.475 288.862 161.326 288.764 161.2 288.639C161.075 288.514 160.976 288.366 160.908 288.203C160.84 288.039 160.805 287.864 160.805 287.687C160.804 287.51 160.838 287.334 160.905 287.17C160.973 287.006 161.072 286.856 161.198 286.731C161.323 286.605 161.472 286.506 161.637 286.439C161.801 286.371 161.977 286.337 162.154 286.338H240.731C240.908 286.338 241.083 286.373 241.247 286.441C241.41 286.509 241.558 286.608 241.683 286.734C241.807 286.859 241.906 287.008 241.973 287.172C242.04 287.335 242.074 287.511 242.073 287.687C242.073 288.043 241.932 288.384 241.68 288.636C241.428 288.888 241.087 289.029 240.731 289.029Z" fill="#3B4D55" fill-opacity="0.79"/>
<path d="M243.29 195.733H159.588C157.861 195.733 156.46 197.134 156.46 198.861V208.728C156.46 210.456 157.861 211.856 159.588 211.856H243.29C245.017 211.856 246.418 210.456 246.418 208.728V198.861C246.418 197.134 245.017 195.733 243.29 195.733Z" fill="#3B4D55" fill-opacity="0.79"/>
<path d="M243.29 225.888H159.588C157.861 225.888 156.46 227.288 156.46 229.016V238.883C156.46 240.61 157.861 242.011 159.588 242.011H243.29C245.017 242.011 246.418 240.61 246.418 238.883V229.016C246.418 227.288 245.017 225.888 243.29 225.888Z" fill="#3B4D55" fill-opacity="0.79"/>
<path d="M216.341 163.909L207.535 158.839V154.651C208.81 153.108 209.733 151.306 210.241 149.37C210.544 149.478 210.863 149.533 211.185 149.534C212.277 149.534 212.971 146.149 213.088 143.731C214.36 141.04 212.628 139.464 212.628 139.464C212.628 139.464 213.346 138.746 213.821 135.868C214.297 132.99 212.144 134.191 210.467 131.555C208.79 128.918 207.589 126.048 202.082 126.048C200.565 125.998 199.068 126.406 197.785 127.218C196.503 128.031 195.494 129.21 194.891 130.603C193.52 130.608 192.154 130.768 190.819 131.079C189.134 131.555 188.659 137.069 190.094 139.23C190.736 140.411 191.079 141.731 191.092 143.075C190.71 142.607 190.312 142.483 190.094 143.543C189.618 145.938 191.537 149.292 191.537 149.292L192.527 149.011C193.026 151.08 193.989 153.009 195.343 154.651V158.839L186.537 163.909C185.509 164.503 184.654 165.357 184.06 166.385C183.466 167.413 183.153 168.58 183.152 169.767V172.669C188.389 176.715 194.821 178.91 201.439 178.91C208.057 178.91 214.489 176.715 219.726 172.669V169.767C219.727 168.579 219.414 167.412 218.82 166.384C218.225 165.355 217.37 164.502 216.341 163.909Z" fill="#263238"/>
<path d="M167.856 238.001C167.654 237.999 167.461 237.917 167.318 237.775C167.241 237.707 167.18 237.622 167.138 237.528C167.096 237.434 167.075 237.332 167.076 237.229C167.078 237.089 167.119 236.951 167.193 236.831L168.597 234.585L165.859 234.671C165.756 234.677 165.653 234.662 165.556 234.626C165.459 234.589 165.371 234.533 165.298 234.46C165.17 234.317 165.1 234.133 165.1 233.942C165.1 233.75 165.17 233.566 165.298 233.423C165.369 233.347 165.457 233.289 165.554 233.251C165.651 233.213 165.755 233.197 165.859 233.204L168.558 233.306L167.17 231.067C167.094 230.945 167.054 230.805 167.053 230.662C167.052 230.559 167.073 230.457 167.115 230.363C167.156 230.268 167.218 230.184 167.294 230.116C167.438 229.973 167.631 229.892 167.833 229.889C167.965 229.89 168.095 229.929 168.207 230.001C168.319 230.072 168.408 230.175 168.464 230.295L169.798 232.705L171.116 230.311C171.179 230.183 171.275 230.075 171.395 229.998C171.514 229.921 171.653 229.878 171.795 229.874C171.894 229.874 171.991 229.896 172.081 229.936C172.171 229.976 172.251 230.035 172.318 230.108C172.461 230.256 172.539 230.455 172.536 230.662C172.536 230.796 172.501 230.927 172.435 231.044L171.023 233.306L173.761 233.204C173.864 233.197 173.969 233.213 174.066 233.251C174.163 233.289 174.25 233.347 174.322 233.423C174.455 233.561 174.528 233.746 174.525 233.938C174.524 234.131 174.452 234.317 174.322 234.46C174.249 234.533 174.161 234.589 174.064 234.626C173.967 234.662 173.864 234.677 173.761 234.671L171.007 234.585L172.38 236.808C172.457 236.932 172.497 237.075 172.497 237.221C172.497 237.428 172.415 237.627 172.269 237.773C172.122 237.919 171.924 238.001 171.717 238.001C171.583 238 171.453 237.959 171.342 237.884C171.231 237.809 171.145 237.704 171.093 237.58L169.79 235.24L168.496 237.58C168.438 237.703 168.348 237.807 168.235 237.881C168.122 237.955 167.991 237.997 167.856 238.001Z" fill="#263238"/>
<path d="M180.508 238.001C180.306 237.999 180.113 237.917 179.969 237.775C179.893 237.707 179.831 237.622 179.79 237.528C179.748 237.434 179.727 237.332 179.728 237.229C179.73 237.089 179.77 236.951 179.845 236.831L181.249 234.585L178.519 234.671C178.414 234.676 178.31 234.659 178.213 234.623C178.115 234.587 178.025 234.532 177.949 234.46C177.846 234.353 177.777 234.218 177.751 234.071C177.726 233.925 177.745 233.774 177.806 233.639C177.868 233.503 177.969 233.389 178.096 233.312C178.223 233.234 178.37 233.197 178.519 233.204L181.21 233.306L179.821 231.067C179.746 230.945 179.705 230.805 179.704 230.662C179.703 230.559 179.725 230.457 179.766 230.363C179.808 230.268 179.869 230.184 179.946 230.116C180.089 229.973 180.282 229.892 180.484 229.889C180.617 229.89 180.747 229.929 180.859 230.001C180.971 230.072 181.06 230.175 181.116 230.295L182.45 232.705L183.768 230.311C183.831 230.183 183.927 230.075 184.046 229.998C184.166 229.921 184.304 229.878 184.447 229.874C184.545 229.873 184.643 229.894 184.733 229.934C184.823 229.975 184.904 230.034 184.969 230.108C185.041 230.181 185.099 230.267 185.137 230.362C185.176 230.457 185.196 230.559 185.195 230.662C185.193 230.796 185.155 230.928 185.086 231.044L183.674 233.306L186.42 233.22C186.523 233.213 186.626 233.229 186.721 233.267C186.817 233.305 186.903 233.363 186.974 233.438C187.107 233.577 187.18 233.762 187.177 233.953C187.176 234.147 187.104 234.333 186.974 234.476C186.902 234.548 186.815 234.605 186.72 234.641C186.624 234.677 186.522 234.693 186.42 234.686L183.659 234.601L185.032 236.824C185.109 236.948 185.149 237.091 185.149 237.237C185.149 237.444 185.066 237.642 184.92 237.789C184.774 237.935 184.575 238.017 184.369 238.017C184.235 238.015 184.105 237.974 183.994 237.9C183.883 237.825 183.796 237.719 183.745 237.596L182.442 235.256L181.147 237.596C181.088 237.715 180.997 237.816 180.884 237.888C180.771 237.959 180.641 237.998 180.508 238.001Z" fill="#263238"/>
<path d="M193.167 238.001C192.962 238.001 192.766 237.919 192.621 237.775C192.544 237.707 192.483 237.622 192.441 237.528C192.4 237.434 192.378 237.332 192.379 237.229C192.382 237.089 192.422 236.951 192.496 236.831L193.9 234.585L191.17 234.671C191.023 234.677 190.878 234.639 190.752 234.562C190.627 234.485 190.528 234.372 190.466 234.238C190.405 234.104 190.386 233.955 190.409 233.81C190.433 233.665 190.5 233.53 190.601 233.423C190.674 233.348 190.763 233.289 190.862 233.252C190.96 233.214 191.065 233.198 191.17 233.204L193.861 233.306L192.473 231.067C192.397 230.945 192.357 230.805 192.356 230.662C192.358 230.559 192.381 230.458 192.422 230.365C192.464 230.271 192.523 230.186 192.598 230.116C192.743 229.972 192.939 229.89 193.144 229.889C193.275 229.892 193.403 229.931 193.514 230.003C193.624 230.074 193.712 230.176 193.768 230.295L195.101 232.705L196.42 230.311C196.482 230.183 196.578 230.075 196.698 229.998C196.818 229.921 196.956 229.878 197.098 229.874C197.197 229.873 197.295 229.894 197.385 229.934C197.475 229.975 197.555 230.034 197.621 230.108C197.693 230.181 197.75 230.267 197.789 230.362C197.828 230.457 197.848 230.559 197.847 230.662C197.844 230.796 197.807 230.928 197.738 231.044L196.326 233.306L199.072 233.204C199.172 233.194 199.274 233.206 199.37 233.239C199.467 233.271 199.554 233.324 199.628 233.394C199.702 233.463 199.761 233.548 199.799 233.641C199.837 233.735 199.855 233.836 199.852 233.938C199.853 234.13 199.784 234.316 199.657 234.46C199.583 234.533 199.495 234.589 199.398 234.626C199.301 234.662 199.198 234.677 199.095 234.671L196.342 234.585L197.707 236.808C197.783 236.932 197.824 237.075 197.824 237.221C197.821 237.324 197.798 237.425 197.757 237.519C197.715 237.612 197.656 237.697 197.582 237.767C197.514 237.84 197.432 237.899 197.341 237.939C197.249 237.979 197.151 238.001 197.051 238.001C196.919 237.999 196.79 237.958 196.68 237.883C196.571 237.808 196.485 237.703 196.435 237.58L195.125 235.24L193.83 237.58C193.772 237.707 193.678 237.814 193.56 237.888C193.443 237.963 193.306 238.002 193.167 238.001Z" fill="#263238"/>
<path d="M205.819 238.001C205.614 238.001 205.418 237.919 205.273 237.775C205.126 237.631 205.042 237.435 205.039 237.229C205.036 237.089 205.074 236.951 205.148 236.831L206.552 234.585L203.822 234.671C203.718 234.676 203.614 234.659 203.516 234.623C203.418 234.587 203.328 234.532 203.252 234.46C203.125 234.317 203.055 234.133 203.055 233.942C203.055 233.75 203.125 233.566 203.252 233.423C203.328 233.35 203.417 233.293 203.515 233.256C203.613 233.218 203.717 233.201 203.822 233.204L206.521 233.306L205.14 231.067C205.064 230.945 205.024 230.805 205.023 230.662C205.025 230.559 205.048 230.458 205.09 230.365C205.131 230.271 205.191 230.186 205.265 230.116C205.41 229.972 205.606 229.89 205.811 229.889C205.944 229.89 206.074 229.929 206.185 230.001C206.297 230.072 206.386 230.175 206.443 230.295L207.769 232.705L209.087 230.311C209.149 230.183 209.246 230.075 209.365 229.998C209.485 229.921 209.623 229.878 209.765 229.874C209.864 229.873 209.962 229.894 210.052 229.934C210.142 229.975 210.223 230.034 210.288 230.108C210.36 230.181 210.417 230.267 210.456 230.362C210.495 230.457 210.515 230.559 210.514 230.662C210.511 230.796 210.474 230.928 210.405 231.044L208.993 233.306L211.739 233.204C211.84 233.194 211.942 233.206 212.038 233.239C212.134 233.271 212.222 233.324 212.296 233.394C212.37 233.463 212.428 233.548 212.466 233.641C212.505 233.735 212.523 233.836 212.519 233.938C212.52 234.13 212.451 234.316 212.324 234.46C212.25 234.533 212.162 234.589 212.066 234.626C211.969 234.662 211.865 234.677 211.762 234.671L209.009 234.585L210.374 236.808C210.451 236.932 210.491 237.075 210.491 237.221C210.492 237.324 210.47 237.426 210.429 237.52C210.387 237.615 210.326 237.699 210.249 237.767C210.181 237.84 210.099 237.899 210.008 237.939C209.917 237.979 209.818 238.001 209.719 238.001C209.586 237.999 209.457 237.958 209.347 237.883C209.238 237.808 209.153 237.703 209.102 237.58L207.792 235.24L206.497 237.58C206.438 237.709 206.342 237.818 206.221 237.893C206.1 237.968 205.961 238.005 205.819 238.001Z" fill="#263238"/>
<path d="M218.47 238.001C218.266 238.001 218.069 237.919 217.924 237.775C217.803 237.653 217.726 237.494 217.705 237.323C217.684 237.153 217.72 236.98 217.807 236.831L219.203 234.585L216.473 234.671C216.369 234.676 216.265 234.659 216.167 234.623C216.07 234.587 215.98 234.532 215.904 234.46C215.777 234.317 215.706 234.133 215.706 233.942C215.706 233.75 215.777 233.566 215.904 233.423C215.979 233.35 216.069 233.293 216.166 233.256C216.264 233.218 216.369 233.201 216.473 233.204L219.172 233.306L217.784 231.067C217.708 230.945 217.668 230.805 217.667 230.662C217.67 230.456 217.754 230.26 217.901 230.116C218.046 229.972 218.242 229.89 218.447 229.889C218.58 229.89 218.71 229.929 218.821 230.001C218.933 230.073 219.022 230.175 219.079 230.295L220.405 232.705L221.723 230.311C221.785 230.183 221.882 230.075 222.001 229.998C222.121 229.921 222.259 229.878 222.401 229.874C222.501 229.873 222.6 229.894 222.692 229.934C222.783 229.975 222.865 230.034 222.932 230.108C223.075 230.256 223.153 230.455 223.15 230.662C223.147 230.796 223.11 230.928 223.041 231.044L221.629 233.306L224.375 233.204C224.476 233.194 224.578 233.206 224.674 233.239C224.77 233.271 224.858 233.324 224.932 233.394C225.006 233.463 225.064 233.548 225.102 233.641C225.141 233.735 225.159 233.836 225.155 233.938C225.156 234.13 225.087 234.316 224.96 234.46C224.886 234.533 224.798 234.589 224.701 234.626C224.605 234.662 224.501 234.677 224.398 234.671L221.645 234.585L223.01 236.808C223.087 236.932 223.127 237.075 223.127 237.221C223.127 237.324 223.106 237.426 223.065 237.52C223.023 237.615 222.962 237.699 222.885 237.767C222.817 237.84 222.735 237.899 222.644 237.939C222.553 237.979 222.454 238.001 222.355 238.001C222.222 237.999 222.093 237.958 221.983 237.883C221.874 237.808 221.789 237.703 221.738 237.58L220.428 235.24L219.133 237.58C219.075 237.707 218.981 237.814 218.864 237.888C218.746 237.963 218.609 238.002 218.47 238.001Z" fill="#263238"/>
<path d="M231.122 238.001C230.92 237.999 230.727 237.917 230.584 237.775C230.507 237.707 230.446 237.622 230.404 237.528C230.362 237.434 230.341 237.332 230.342 237.229C230.344 237.089 230.385 236.951 230.459 236.831L231.855 234.585L229.125 234.671C229.025 234.678 228.924 234.665 228.829 234.631C228.734 234.598 228.647 234.545 228.573 234.476C228.5 234.407 228.442 234.324 228.403 234.231C228.363 234.138 228.344 234.038 228.345 233.938C228.344 233.842 228.363 233.748 228.399 233.659C228.435 233.571 228.488 233.491 228.556 233.423C228.627 233.347 228.715 233.289 228.812 233.251C228.909 233.213 229.013 233.197 229.117 233.204L231.816 233.306L230.428 231.067C230.352 230.945 230.312 230.805 230.311 230.662C230.313 230.456 230.398 230.26 230.545 230.116C230.69 229.972 230.886 229.89 231.091 229.889C231.223 229.89 231.353 229.929 231.465 230.001C231.577 230.073 231.666 230.175 231.722 230.295L233.048 232.705L234.374 230.311C234.436 230.184 234.531 230.077 234.649 230C234.768 229.923 234.904 229.879 235.045 229.874C235.145 229.873 235.244 229.894 235.335 229.934C235.427 229.975 235.509 230.034 235.576 230.108C235.719 230.256 235.797 230.455 235.794 230.662C235.794 230.796 235.759 230.927 235.693 231.044L234.281 233.306L237.019 233.204C237.122 233.197 237.227 233.213 237.324 233.251C237.421 233.289 237.508 233.347 237.58 233.423C237.713 233.561 237.786 233.746 237.783 233.938C237.782 234.131 237.71 234.317 237.58 234.46C237.507 234.533 237.419 234.589 237.322 234.626C237.225 234.662 237.122 234.677 237.019 234.671L234.265 234.585L235.63 236.808C235.707 236.932 235.748 237.075 235.747 237.221C235.744 237.427 235.66 237.623 235.513 237.767C235.371 237.913 235.178 237.996 234.975 238.001C234.842 237.999 234.713 237.958 234.604 237.883C234.494 237.808 234.409 237.703 234.359 237.58L233.048 235.24L231.754 237.58C231.697 237.702 231.609 237.806 231.497 237.88C231.386 237.954 231.256 237.996 231.122 238.001Z" fill="#263238"/>
<g style="mix-blend-mode:multiply">
<path d="M270.473 79.9812H132.397V88.6314H270.473V79.9812Z" fill="#3B4D55" fill-opacity="0.79"/>
</g>
<path d="M216.45 64.0458H186.42C185.878 64.0458 185.358 63.8305 184.975 63.4473C184.592 63.064 184.376 62.5442 184.376 62.0022C184.376 61.4602 184.592 60.9404 184.975 60.5572C185.358 60.1739 185.878 59.9586 186.42 59.9586H216.45C216.992 59.9586 217.512 60.1739 217.895 60.5572C218.278 60.9404 218.494 61.4602 218.494 62.0022C218.494 62.5442 218.278 63.064 217.895 63.4473C217.512 63.8305 216.992 64.0458 216.45 64.0458Z" fill="#3B4D55" fill-opacity="0.79" stroke="#263238" stroke-width="1.33739" stroke-linecap="round" stroke-linejoin="round"/>
<path d="M209.625 315.697C209.627 314.077 209.147 312.492 208.248 311.144C207.349 309.796 206.07 308.745 204.573 308.124C203.076 307.504 201.429 307.341 199.839 307.656C198.25 307.972 196.79 308.752 195.644 309.898C194.498 311.044 193.718 312.504 193.402 314.094C193.086 315.683 193.249 317.33 193.87 318.827C194.491 320.324 195.542 321.603 196.89 322.502C198.238 323.402 199.822 323.881 201.443 323.879C203.612 323.877 205.692 323.015 207.226 321.481C208.76 319.947 209.623 317.867 209.625 315.697Z" fill="#3B4D55" fill-opacity="0.79"/>
<path d="M205.592 311.548H197.293V319.847H205.592V311.548Z" fill="#3B4D55" fill-opacity="0.79" stroke="#263238" stroke-width="1.33739" stroke-linecap="round" stroke-linejoin="round"/>
<path d="M300.3 221.52C300.3 221.52 289.427 193.892 299.107 190.609C309.184 187.184 308.74 205.429 308.35 214.321C307.531 233.321 305.432 236.855 303.865 232.214L300.3 221.52ZM297.032 243.071C300.019 246.971 300.862 242.931 295.472 224.687C292.945 216.107 287.453 198.752 279.029 205.265C270.941 211.505 290.191 234.125 290.191 234.125L297.032 243.071ZM291.26 258.905C294.107 261.433 294.161 258.242 287.399 245.068C284.224 238.898 277.508 226.411 272.009 232.588C266.729 238.547 284.723 253.032 284.723 253.032L291.26 258.905ZM285.02 277.735C287.867 280.27 287.921 277.072 281.159 263.905C277.984 257.735 271.268 245.24 265.769 251.425C260.52 257.4 278.46 271.885 278.46 271.885L285.02 277.735ZM303.038 239.405C298.483 241.184 302.102 243.118 321.126 243.064C330.049 243.064 348.27 242.658 344.386 232.744C340.665 223.22 313.568 235.349 313.568 235.349L303.038 239.405ZM297.851 252.073C293.03 252.907 296.197 255.528 314.855 259.256C323.599 261.011 341.531 264.248 339.698 253.796C337.943 243.719 308.974 250.224 308.974 250.224L297.851 252.073ZM292.048 267.54C287.945 268.133 290.566 270.418 306.251 274.006C313.607 275.691 328.7 278.85 327.389 269.935C326.141 261.355 301.493 266.206 301.493 266.206L292.048 267.54ZM287.641 281.869C283.624 282.89 286.471 284.887 302.461 286.79C309.949 287.68 325.291 289.224 323.053 280.496C320.892 272.119 296.899 279.536 296.899 279.536L287.641 281.869ZM311.15 223.86C308.81 229.102 313.669 228.306 330.19 213.892C337.927 207.129 353.449 192.98 341.156 185.936C329.355 179.166 316.664 211.832 316.664 211.832L311.15 223.86ZM288.249 300.534C285.776 301.977 288.202 302.539 299.543 300.277C304.863 299.224 315.682 296.884 312.023 292.266C308.482 287.82 293.974 297.18 293.974 297.18L288.249 300.534Z" fill="#72DD4F"/>
<path opacity="0.3" d="M300.3 221.52C300.3 221.52 289.427 193.892 299.107 190.609C309.184 187.184 308.74 205.429 308.35 214.321C307.531 233.321 305.432 236.855 303.865 232.214L300.3 221.52ZM297.032 243.071C300.019 246.971 300.862 242.931 295.472 224.687C292.945 216.107 287.453 198.752 279.029 205.265C270.941 211.505 290.191 234.125 290.191 234.125L297.032 243.071ZM291.26 258.905C294.107 261.433 294.161 258.242 287.399 245.068C284.224 238.898 277.508 226.411 272.009 232.588C266.729 238.547 284.723 253.032 284.723 253.032L291.26 258.905ZM285.02 277.735C287.867 280.27 287.921 277.072 281.159 263.905C277.984 257.735 271.268 245.24 265.769 251.425C260.52 257.4 278.46 271.885 278.46 271.885L285.02 277.735ZM303.038 239.405C298.483 241.184 302.102 243.118 321.126 243.064C330.049 243.064 348.27 242.658 344.386 232.744C340.665 223.22 313.568 235.349 313.568 235.349L303.038 239.405ZM297.851 252.073C293.03 252.907 296.197 255.528 314.855 259.256C323.599 261.011 341.531 264.248 339.698 253.796C337.943 243.719 308.974 250.224 308.974 250.224L297.851 252.073ZM292.048 267.54C287.945 268.133 290.566 270.418 306.251 274.006C313.607 275.691 328.7 278.85 327.389 269.935C326.141 261.355 301.493 266.206 301.493 266.206L292.048 267.54ZM287.641 281.869C283.624 282.89 286.471 284.887 302.461 286.79C309.949 287.68 325.291 289.224 323.053 280.496C320.892 272.119 296.899 279.536 296.899 279.536L287.641 281.869ZM311.15 223.86C308.81 229.102 313.669 228.306 330.19 213.892C337.927 207.129 353.449 192.98 341.156 185.936C329.355 179.166 316.664 211.832 316.664 211.832L311.15 223.86ZM288.249 300.534C285.776 301.977 288.202 302.539 299.543 300.277C304.863 299.224 315.682 296.884 312.023 292.266C308.482 287.82 293.974 297.18 293.974 297.18L288.249 300.534Z" fill="white"/>
<path d="M305.097 234.382L303.202 202.847L305.097 234.382ZM299.099 244.787L287.118 217.667L299.099 244.787ZM330.018 236.902L301.306 241.02L330.018 236.902ZM292.89 259.405L277.345 239.46L292.89 259.405ZM295.62 253.289L317.039 254.366L295.62 253.289ZM290.55 268.585L306.93 270.208L290.55 268.585ZM286.595 278.304L278.46 266.066L286.595 278.304ZM285.659 282.625L304.918 282.805L285.659 282.625ZM281.759 318.755C281.888 318.745 282.008 318.684 282.093 318.587C282.178 318.489 282.22 318.361 282.212 318.232C280.987 299.84 288.101 269.716 299.512 244.99C306.805 229.187 335.392 198.128 335.696 197.816C335.788 197.724 335.84 197.599 335.84 197.469C335.84 197.339 335.788 197.214 335.696 197.122C335.651 197.076 335.598 197.04 335.539 197.016C335.48 196.991 335.417 196.979 335.353 196.979C335.289 196.979 335.226 196.991 335.167 197.016C335.108 197.04 335.055 197.076 335.01 197.122C334.721 197.434 306.017 228.61 298.662 244.553C287.04 269.88 280.02 299.458 281.268 318.295C281.278 318.419 281.334 318.535 281.424 318.62C281.515 318.705 281.635 318.753 281.759 318.755ZM305.089 234.866C305.218 234.858 305.339 234.799 305.425 234.703C305.511 234.607 305.556 234.48 305.549 234.351L303.685 202.8C303.682 202.736 303.666 202.673 303.639 202.615C303.611 202.557 303.572 202.505 303.524 202.462C303.476 202.419 303.42 202.386 303.36 202.365C303.299 202.344 303.235 202.336 303.17 202.34C303.041 202.348 302.921 202.406 302.835 202.503C302.748 202.599 302.704 202.726 302.71 202.855L304.606 234.39C304.612 234.514 304.665 234.631 304.755 234.717C304.845 234.803 304.965 234.85 305.089 234.85V234.866ZM299.27 245.232C299.387 245.179 299.479 245.083 299.525 244.963C299.572 244.844 299.57 244.711 299.52 244.592L287.531 217.472C287.48 217.354 287.383 217.261 287.263 217.215C287.143 217.168 287.01 217.171 286.892 217.222C286.774 217.274 286.681 217.37 286.635 217.49C286.588 217.61 286.59 217.744 286.642 217.862L298.623 244.982C298.661 245.069 298.723 245.144 298.801 245.196C298.88 245.249 298.973 245.278 299.068 245.279C299.148 245.283 299.229 245.267 299.302 245.232H299.27ZM301.345 241.488L330.041 237.385C330.111 237.384 330.179 237.368 330.242 237.338C330.304 237.308 330.36 237.266 330.405 237.213C330.45 237.16 330.483 237.099 330.503 237.032C330.522 236.966 330.527 236.896 330.518 236.827C330.509 236.759 330.485 236.693 330.448 236.634C330.411 236.575 330.363 236.525 330.305 236.486C330.248 236.447 330.183 236.421 330.114 236.41C330.046 236.398 329.976 236.401 329.909 236.418L301.213 240.521C301.084 240.529 300.965 240.588 300.88 240.685C300.795 240.781 300.752 240.907 300.76 241.036C300.768 241.164 300.827 241.284 300.924 241.368C301.02 241.453 301.147 241.496 301.275 241.488H301.345ZM293.163 259.795C293.265 259.715 293.331 259.598 293.347 259.469C293.363 259.341 293.328 259.211 293.249 259.108L277.696 239.125C277.616 239.021 277.498 238.954 277.369 238.937C277.24 238.92 277.109 238.955 277.005 239.035C276.902 239.115 276.834 239.232 276.817 239.362C276.801 239.491 276.836 239.622 276.916 239.725L292.5 259.74C292.545 259.798 292.603 259.846 292.669 259.878C292.736 259.91 292.808 259.927 292.882 259.927C292.999 259.921 293.109 259.874 293.194 259.795H293.163ZM317.468 254.389C317.472 254.26 317.425 254.135 317.338 254.04C317.25 253.945 317.129 253.888 317 253.882L295.62 252.798C295.5 252.806 295.387 252.858 295.303 252.944C295.218 253.03 295.169 253.144 295.163 253.265C295.157 253.385 295.196 253.503 295.271 253.597C295.347 253.691 295.454 253.753 295.573 253.773L316.992 254.857C317.121 254.861 317.247 254.815 317.341 254.727C317.436 254.64 317.493 254.518 317.499 254.389H317.468ZM307.382 270.254C307.39 270.19 307.385 270.125 307.367 270.063C307.349 270.001 307.318 269.943 307.278 269.893C307.237 269.843 307.187 269.801 307.13 269.771C307.072 269.741 307.01 269.722 306.946 269.716L290.566 268.102C290.502 268.095 290.438 268.101 290.377 268.12C290.316 268.138 290.259 268.169 290.209 268.209C290.16 268.25 290.119 268.3 290.089 268.357C290.059 268.413 290.041 268.475 290.035 268.538C290.024 268.666 290.064 268.794 290.145 268.893C290.227 268.992 290.344 269.055 290.472 269.069L306.852 270.691H306.899C307.025 270.7 307.149 270.659 307.245 270.578C307.341 270.496 307.402 270.38 307.414 270.254H307.382ZM286.829 278.71C286.938 278.638 287.013 278.526 287.04 278.399C287.066 278.272 287.041 278.14 286.97 278.031L278.873 265.793C278.799 265.687 278.687 265.615 278.561 265.59C278.434 265.565 278.303 265.59 278.195 265.66C278.086 265.732 278.011 265.843 277.985 265.971C277.958 266.098 277.983 266.23 278.054 266.339L286.151 278.577C286.197 278.644 286.259 278.699 286.331 278.737C286.403 278.775 286.483 278.795 286.564 278.795C286.67 278.801 286.774 278.771 286.861 278.71H286.829ZM305.409 282.805C305.407 282.676 305.356 282.554 305.266 282.462C305.176 282.371 305.054 282.317 304.925 282.313L285.667 282.134C285.539 282.134 285.416 282.185 285.325 282.276C285.235 282.366 285.184 282.489 285.184 282.617C285.181 282.682 285.192 282.746 285.216 282.806C285.239 282.866 285.275 282.921 285.32 282.967C285.365 283.013 285.419 283.049 285.479 283.074C285.539 283.098 285.603 283.11 285.667 283.109L304.925 283.288C304.991 283.291 305.057 283.281 305.119 283.258C305.181 283.236 305.237 283.201 305.285 283.156C305.333 283.11 305.372 283.056 305.398 282.996C305.425 282.936 305.439 282.871 305.44 282.805H305.409ZM279.568 311.602C279.607 311.516 282.89 302.468 292.765 300.308C292.892 300.28 293.003 300.203 293.073 300.093C293.144 299.983 293.167 299.85 293.14 299.723C293.108 299.598 293.03 299.49 292.921 299.422C292.812 299.354 292.681 299.33 292.555 299.356C282.142 301.634 278.686 311.189 278.647 311.282C278.607 311.406 278.616 311.54 278.673 311.656C278.73 311.772 278.83 311.862 278.951 311.906H279.107C279.211 311.915 279.315 311.891 279.404 311.836C279.492 311.781 279.561 311.699 279.599 311.602H279.568ZM281.759 318.755C281.888 318.745 282.008 318.684 282.093 318.587C282.178 318.489 282.22 318.361 282.212 318.232C280.987 299.84 288.101 269.716 299.512 244.99C306.805 229.187 335.392 198.128 335.696 197.816C335.788 197.724 335.84 197.599 335.84 197.469C335.84 197.339 335.788 197.214 335.696 197.122C335.651 197.076 335.598 197.04 335.539 197.016C335.48 196.991 335.417 196.979 335.353 196.979C335.289 196.979 335.226 196.991 335.167 197.016C335.108 197.04 335.055 197.076 335.01 197.122C334.721 197.434 306.017 228.61 298.662 244.553C287.04 269.88 280.02 299.458 281.268 318.295C281.278 318.419 281.334 318.535 281.424 318.62C281.515 318.705 281.635 318.753 281.759 318.755ZM305.089 234.866C305.218 234.858 305.339 234.799 305.425 234.703C305.511 234.607 305.556 234.48 305.549 234.351L303.685 202.8C303.682 202.736 303.666 202.673 303.639 202.615C303.611 202.557 303.572 202.505 303.524 202.462C303.476 202.419 303.42 202.386 303.36 202.365C303.299 202.344 303.235 202.336 303.17 202.34C303.041 202.348 302.921 202.406 302.835 202.503C302.748 202.599 302.704 202.726 302.71 202.855L304.606 234.39C304.612 234.514 304.665 234.631 304.755 234.717C304.845 234.803 304.965 234.85 305.089 234.85V234.866ZM299.27 245.232C299.387 245.179 299.479 245.083 299.525 244.963C299.572 244.844 299.57 244.711 299.52 244.592L287.531 217.472C287.48 217.354 287.383 217.261 287.263 217.215C287.143 217.168 287.01 217.171 286.892 217.222C286.774 217.274 286.681 217.37 286.635 217.49C286.588 217.61 286.59 217.744 286.642 217.862L298.623 244.982C298.661 245.069 298.723 245.144 298.801 245.196C298.88 245.249 298.973 245.278 299.068 245.279C299.148 245.283 299.229 245.267 299.302 245.232H299.27ZM301.345 241.488L330.041 237.385C330.111 237.384 330.179 237.368 330.242 237.338C330.304 237.308 330.36 237.266 330.405 237.213C330.45 237.16 330.483 237.099 330.503 237.032C330.522 236.966 330.527 236.896 330.518 236.827C330.509 236.759 330.485 236.693 330.448 236.634C330.411 236.575 330.363 236.525 330.305 236.486C330.248 236.447 330.183 236.421 330.114 236.41C330.046 236.398 329.976 236.401 329.909 236.418L301.213 240.521C301.084 240.529 300.965 240.588 300.88 240.685C300.795 240.781 300.752 240.907 300.76 241.036C300.768 241.164 300.827 241.284 300.924 241.368C301.02 241.453 301.147 241.496 301.275 241.488H301.345ZM293.163 259.795C293.265 259.715 293.331 259.598 293.347 259.469C293.363 259.341 293.328 259.211 293.249 259.108L277.696 239.125C277.656 239.073 277.607 239.03 277.551 238.998C277.495 238.966 277.433 238.945 277.369 238.937C277.305 238.929 277.24 238.933 277.177 238.95C277.115 238.967 277.057 238.996 277.005 239.035C276.954 239.074 276.911 239.124 276.879 239.18C276.847 239.236 276.826 239.297 276.817 239.362C276.809 239.426 276.814 239.491 276.83 239.553C276.847 239.616 276.876 239.674 276.916 239.725L292.5 259.74C292.545 259.798 292.603 259.846 292.669 259.878C292.736 259.91 292.808 259.927 292.882 259.927C292.999 259.921 293.109 259.874 293.194 259.795H293.163ZM317.468 254.389C317.472 254.26 317.425 254.135 317.338 254.04C317.25 253.945 317.129 253.888 317 253.882L295.62 252.798C295.5 252.806 295.387 252.858 295.303 252.944C295.218 253.03 295.169 253.144 295.163 253.265C295.157 253.385 295.196 253.503 295.271 253.597C295.347 253.691 295.454 253.753 295.573 253.773L316.992 254.857C317.121 254.861 317.247 254.815 317.341 254.727C317.436 254.64 317.493 254.518 317.499 254.389H317.468ZM307.382 270.254C307.39 270.19 307.385 270.125 307.367 270.063C307.349 270.001 307.318 269.943 307.278 269.893C307.237 269.843 307.187 269.801 307.13 269.771C307.072 269.741 307.01 269.722 306.946 269.716L290.566 268.102C290.502 268.095 290.438 268.101 290.377 268.12C290.316 268.138 290.259 268.169 290.209 268.209C290.16 268.25 290.119 268.3 290.089 268.357C290.059 268.413 290.041 268.475 290.035 268.538C290.024 268.666 290.064 268.794 290.145 268.893C290.227 268.992 290.344 269.055 290.472 269.069L306.852 270.691H306.899C307.025 270.7 307.149 270.659 307.245 270.578C307.341 270.496 307.402 270.38 307.414 270.254H307.382ZM286.829 278.71C286.938 278.638 287.013 278.526 287.04 278.399C287.066 278.272 287.041 278.14 286.97 278.031L278.873 265.793C278.799 265.687 278.687 265.615 278.561 265.59C278.434 265.565 278.303 265.59 278.195 265.66C278.086 265.732 278.011 265.843 277.985 265.971C277.958 266.098 277.983 266.23 278.054 266.339L286.151 278.577C286.197 278.644 286.259 278.699 286.331 278.737C286.403 278.775 286.483 278.795 286.564 278.795C286.67 278.801 286.774 278.771 286.861 278.71H286.829ZM305.409 282.805C305.407 282.676 305.356 282.554 305.266 282.462C305.176 282.371 305.054 282.317 304.925 282.313L285.667 282.134C285.539 282.134 285.416 282.185 285.325 282.276C285.235 282.366 285.184 282.489 285.184 282.617C285.181 282.682 285.192 282.746 285.216 282.806C285.239 282.866 285.275 282.921 285.32 282.967C285.365 283.013 285.419 283.049 285.479 283.074C285.539 283.098 285.603 283.11 285.667 283.109L304.925 283.288C304.991 283.291 305.057 283.281 305.119 283.258C305.181 283.236 305.237 283.201 305.285 283.156C305.333 283.11 305.372 283.056 305.398 282.996C305.425 282.936 305.439 282.871 305.44 282.805H305.409ZM279.568 311.602C279.607 311.516 282.89 302.468 292.765 300.308C292.892 300.28 293.003 300.203 293.073 300.093C293.144 299.983 293.167 299.85 293.14 299.723C293.108 299.598 293.03 299.49 292.921 299.422C292.812 299.354 292.681 299.33 292.555 299.356C282.142 301.634 278.686 311.189 278.647 311.282C278.607 311.406 278.616 311.54 278.673 311.656C278.73 311.772 278.83 311.862 278.951 311.906H279.107C279.211 311.915 279.315 311.891 279.404 311.836C279.492 311.781 279.561 311.699 279.599 311.602H279.568Z" fill="#72DD4F"/>
<path opacity="0.2" d="M305.097 234.382L303.202 202.847L305.097 234.382ZM299.099 244.787L287.118 217.667L299.099 244.787ZM330.018 236.902L301.306 241.02L330.018 236.902ZM292.89 259.405L277.345 239.46L292.89 259.405ZM295.62 253.289L317.039 254.366L295.62 253.289ZM290.55 268.585L306.93 270.208L290.55 268.585ZM286.595 278.304L278.46 266.066L286.595 278.304ZM285.659 282.625L304.918 282.805L285.659 282.625ZM281.759 318.755C281.888 318.745 282.008 318.684 282.093 318.587C282.178 318.489 282.22 318.361 282.212 318.232C280.987 299.84 288.101 269.716 299.512 244.99C306.805 229.187 335.392 198.128 335.696 197.816C335.788 197.724 335.84 197.599 335.84 197.469C335.84 197.339 335.788 197.214 335.696 197.122C335.651 197.076 335.598 197.04 335.539 197.016C335.48 196.991 335.417 196.979 335.353 196.979C335.289 196.979 335.226 196.991 335.167 197.016C335.108 197.04 335.055 197.076 335.01 197.122C334.721 197.434 306.017 228.61 298.662 244.553C287.04 269.88 280.02 299.458 281.268 318.295C281.278 318.419 281.334 318.535 281.424 318.62C281.515 318.705 281.635 318.753 281.759 318.755ZM305.089 234.866C305.218 234.858 305.339 234.799 305.425 234.703C305.511 234.607 305.556 234.48 305.549 234.351L303.685 202.8C303.682 202.736 303.666 202.673 303.639 202.615C303.611 202.557 303.572 202.505 303.524 202.462C303.476 202.419 303.42 202.386 303.36 202.365C303.299 202.344 303.235 202.336 303.17 202.34C303.041 202.348 302.921 202.406 302.835 202.503C302.748 202.599 302.704 202.726 302.71 202.855L304.606 234.39C304.612 234.514 304.665 234.631 304.755 234.717C304.845 234.803 304.965 234.85 305.089 234.85V234.866ZM299.27 245.232C299.387 245.179 299.479 245.083 299.525 244.963C299.572 244.844 299.57 244.711 299.52 244.592L287.531 217.472C287.48 217.354 287.383 217.261 287.263 217.215C287.143 217.168 287.01 217.171 286.892 217.222C286.774 217.274 286.681 217.37 286.635 217.49C286.588 217.61 286.59 217.744 286.642 217.862L298.623 244.982C298.661 245.069 298.723 245.144 298.801 245.196C298.88 245.249 298.973 245.278 299.068 245.279C299.148 245.283 299.229 245.267 299.302 245.232H299.27ZM301.345 241.488L330.041 237.385C330.111 237.384 330.179 237.368 330.242 237.338C330.304 237.308 330.36 237.266 330.405 237.213C330.45 237.16 330.483 237.099 330.503 237.032C330.522 236.966 330.527 236.896 330.518 236.827C330.509 236.759 330.485 236.693 330.448 236.634C330.411 236.575 330.363 236.525 330.305 236.486C330.248 236.447 330.183 236.421 330.114 236.41C330.046 236.398 329.976 236.401 329.909 236.418L301.213 240.521C301.084 240.529 300.965 240.588 300.88 240.685C300.795 240.781 300.752 240.907 300.76 241.036C300.768 241.164 300.827 241.284 300.924 241.368C301.02 241.453 301.147 241.496 301.275 241.488H301.345ZM293.163 259.795C293.265 259.715 293.331 259.598 293.347 259.469C293.363 259.341 293.328 259.211 293.249 259.108L277.696 239.125C277.616 239.021 277.498 238.954 277.369 238.937C277.24 238.92 277.109 238.955 277.005 239.035C276.902 239.115 276.834 239.232 276.817 239.362C276.801 239.491 276.836 239.622 276.916 239.725L292.5 259.74C292.545 259.798 292.603 259.846 292.669 259.878C292.736 259.91 292.808 259.927 292.882 259.927C292.999 259.921 293.109 259.874 293.194 259.795H293.163ZM317.468 254.389C317.472 254.26 317.425 254.135 317.338 254.04C317.25 253.945 317.129 253.888 317 253.882L295.62 252.798C295.5 252.806 295.387 252.858 295.303 252.944C295.218 253.03 295.169 253.144 295.163 253.265C295.157 253.385 295.196 253.503 295.271 253.597C295.347 253.691 295.454 253.753 295.573 253.773L316.992 254.857C317.121 254.861 317.247 254.815 317.341 254.727C317.436 254.64 317.493 254.518 317.499 254.389H317.468ZM307.382 270.254C307.39 270.19 307.385 270.125 307.367 270.063C307.349 270.001 307.318 269.943 307.278 269.893C307.237 269.843 307.187 269.801 307.13 269.771C307.072 269.741 307.01 269.722 306.946 269.716L290.566 268.102C290.502 268.095 290.438 268.101 290.377 268.12C290.316 268.138 290.259 268.169 290.209 268.209C290.16 268.25 290.119 268.3 290.089 268.357C290.059 268.413 290.041 268.475 290.035 268.538C290.024 268.666 290.064 268.794 290.145 268.893C290.227 268.992 290.344 269.055 290.472 269.069L306.852 270.691H306.899C307.025 270.7 307.149 270.659 307.245 270.578C307.341 270.496 307.402 270.38 307.414 270.254H307.382ZM286.829 278.71C286.938 278.638 287.013 278.526 287.04 278.399C287.066 278.272 287.041 278.14 286.97 278.031L278.873 265.793C278.799 265.687 278.687 265.615 278.561 265.59C278.434 265.565 278.303 265.59 278.195 265.66C278.086 265.732 278.011 265.843 277.985 265.971C277.958 266.098 277.983 266.23 278.054 266.339L286.151 278.577C286.197 278.644 286.259 278.699 286.331 278.737C286.403 278.775 286.483 278.795 286.564 278.795C286.67 278.801 286.774 278.771 286.861 278.71H286.829ZM305.409 282.805C305.407 282.676 305.356 282.554 305.266 282.462C305.176 282.371 305.054 282.317 304.925 282.313L285.667 282.134C285.539 282.134 285.416 282.185 285.325 282.276C285.235 282.366 285.184 282.489 285.184 282.617C285.181 282.682 285.192 282.746 285.216 282.806C285.239 282.866 285.275 282.921 285.32 282.967C285.365 283.013 285.419 283.049 285.479 283.074C285.539 283.098 285.603 283.11 285.667 283.109L304.925 283.288C304.991 283.291 305.057 283.281 305.119 283.258C305.181 283.236 305.237 283.201 305.285 283.156C305.333 283.11 305.372 283.056 305.398 282.996C305.425 282.936 305.439 282.871 305.44 282.805H305.409ZM279.568 311.602C279.607 311.516 282.89 302.468 292.765 300.308C292.892 300.28 293.003 300.203 293.073 300.093C293.144 299.983 293.167 299.85 293.14 299.723C293.108 299.598 293.03 299.49 292.921 299.422C292.812 299.354 292.681 299.33 292.555 299.356C282.142 301.634 278.686 311.189 278.647 311.282C278.607 311.406 278.616 311.54 278.673 311.656C278.73 311.772 278.83 311.862 278.951 311.906H279.107C279.211 311.915 279.315 311.891 279.404 311.836C279.492 311.781 279.561 311.699 279.599 311.602H279.568ZM281.759 318.755C281.888 318.745 282.008 318.684 282.093 318.587C282.178 318.489 282.22 318.361 282.212 318.232C280.987 299.84 288.101 269.716 299.512 244.99C306.805 229.187 335.392 198.128 335.696 197.816C335.788 197.724 335.84 197.599 335.84 197.469C335.84 197.339 335.788 197.214 335.696 197.122C335.651 197.076 335.598 197.04 335.539 197.016C335.48 196.991 335.417 196.979 335.353 196.979C335.289 196.979 335.226 196.991 335.167 197.016C335.108 197.04 335.055 197.076 335.01 197.122C334.721 197.434 306.017 228.61 298.662 244.553C287.04 269.88 280.02 299.458 281.268 318.295C281.278 318.419 281.334 318.535 281.424 318.62C281.515 318.705 281.635 318.753 281.759 318.755ZM305.089 234.866C305.218 234.858 305.339 234.799 305.425 234.703C305.511 234.607 305.556 234.48 305.549 234.351L303.685 202.8C303.682 202.736 303.666 202.673 303.639 202.615C303.611 202.557 303.572 202.505 303.524 202.462C303.476 202.419 303.42 202.386 303.36 202.365C303.299 202.344 303.235 202.336 303.17 202.34C303.041 202.348 302.921 202.406 302.835 202.503C302.748 202.599 302.704 202.726 302.71 202.855L304.606 234.39C304.612 234.514 304.665 234.631 304.755 234.717C304.845 234.803 304.965 234.85 305.089 234.85V234.866ZM299.27 245.232C299.387 245.179 299.479 245.083 299.525 244.963C299.572 244.844 299.57 244.711 299.52 244.592L287.531 217.472C287.48 217.354 287.383 217.261 287.263 217.215C287.143 217.168 287.01 217.171 286.892 217.222C286.774 217.274 286.681 217.37 286.635 217.49C286.588 217.61 286.59 217.744 286.642 217.862L298.623 244.982C298.661 245.069 298.723 245.144 298.801 245.196C298.88 245.249 298.973 245.278 299.068 245.279C299.148 245.283 299.229 245.267 299.302 245.232H299.27ZM301.345 241.488L330.041 237.385C330.111 237.384 330.179 237.368 330.242 237.338C330.304 237.308 330.36 237.266 330.405 237.213C330.45 237.16 330.483 237.099 330.503 237.032C330.522 236.966 330.527 236.896 330.518 236.827C330.509 236.759 330.485 236.693 330.448 236.634C330.411 236.575 330.363 236.525 330.305 236.486C330.248 236.447 330.183 236.421 330.114 236.41C330.046 236.398 329.976 236.401 329.909 236.418L301.213 240.521C301.084 240.529 300.965 240.588 300.88 240.685C300.795 240.781 300.752 240.907 300.76 241.036C300.768 241.164 300.827 241.284 300.924 241.368C301.02 241.453 301.147 241.496 301.275 241.488H301.345ZM293.163 259.795C293.265 259.715 293.331 259.598 293.347 259.469C293.363 259.341 293.328 259.211 293.249 259.108L277.696 239.125C277.656 239.073 277.607 239.03 277.551 238.998C277.495 238.966 277.433 238.945 277.369 238.937C277.305 238.929 277.24 238.933 277.177 238.95C277.115 238.967 277.057 238.996 277.005 239.035C276.954 239.074 276.911 239.124 276.879 239.18C276.847 239.236 276.826 239.297 276.817 239.362C276.809 239.426 276.814 239.491 276.83 239.553C276.847 239.616 276.876 239.674 276.916 239.725L292.5 259.74C292.545 259.798 292.603 259.846 292.669 259.878C292.736 259.91 292.808 259.927 292.882 259.927C292.999 259.921 293.109 259.874 293.194 259.795H293.163ZM317.468 254.389C317.472 254.26 317.425 254.135 317.338 254.04C317.25 253.945 317.129 253.888 317 253.882L295.62 252.798C295.5 252.806 295.387 252.858 295.303 252.944C295.218 253.03 295.169 253.144 295.163 253.265C295.157 253.385 295.196 253.503 295.271 253.597C295.347 253.691 295.454 253.753 295.573 253.773L316.992 254.857C317.121 254.861 317.247 254.815 317.341 254.727C317.436 254.64 317.493 254.518 317.499 254.389H317.468ZM307.382 270.254C307.39 270.19 307.385 270.125 307.367 270.063C307.349 270.001 307.318 269.943 307.278 269.893C307.237 269.843 307.187 269.801 307.13 269.771C307.072 269.741 307.01 269.722 306.946 269.716L290.566 268.102C290.502 268.095 290.438 268.101 290.377 268.12C290.316 268.138 290.259 268.169 290.209 268.209C290.16 268.25 290.119 268.3 290.089 268.357C290.059 268.413 290.041 268.475 290.035 268.538C290.024 268.666 290.064 268.794 290.145 268.893C290.227 268.992 290.344 269.055 290.472 269.069L306.852 270.691H306.899C307.025 270.7 307.149 270.659 307.245 270.578C307.341 270.496 307.402 270.38 307.414 270.254H307.382ZM286.829 278.71C286.938 278.638 287.013 278.526 287.04 278.399C287.066 278.272 287.041 278.14 286.97 278.031L278.873 265.793C278.799 265.687 278.687 265.615 278.561 265.59C278.434 265.565 278.303 265.59 278.195 265.66C278.086 265.732 278.011 265.843 277.985 265.971C277.958 266.098 277.983 266.23 278.054 266.339L286.151 278.577C286.197 278.644 286.259 278.699 286.331 278.737C286.403 278.775 286.483 278.795 286.564 278.795C286.67 278.801 286.774 278.771 286.861 278.71H286.829ZM305.409 282.805C305.407 282.676 305.356 282.554 305.266 282.462C305.176 282.371 305.054 282.317 304.925 282.313L285.667 282.134C285.539 282.134 285.416 282.185 285.325 282.276C285.235 282.366 285.184 282.489 285.184 282.617C285.181 282.682 285.192 282.746 285.216 282.806C285.239 282.866 285.275 282.921 285.32 282.967C285.365 283.013 285.419 283.049 285.479 283.074C285.539 283.098 285.603 283.11 285.667 283.109L304.925 283.288C304.991 283.291 305.057 283.281 305.119 283.258C305.181 283.236 305.237 283.201 305.285 283.156C305.333 283.11 305.372 283.056 305.398 282.996C305.425 282.936 305.439 282.871 305.44 282.805H305.409ZM279.568 311.602C279.607 311.516 282.89 302.468 292.765 300.308C292.892 300.28 293.003 300.203 293.073 300.093C293.144 299.983 293.167 299.85 293.14 299.723C293.108 299.598 293.03 299.49 292.921 299.422C292.812 299.354 292.681 299.33 292.555 299.356C282.142 301.634 278.686 311.189 278.647 311.282C278.607 311.406 278.616 311.54 278.673 311.656C278.73 311.772 278.83 311.862 278.951 311.906H279.107C279.211 311.915 279.315 311.891 279.404 311.836C279.492 311.781 279.561 311.699 279.599 311.602H279.568Z" fill="black"/>
<path d="M294.497 305.003H272.415V309.574H274.342L278.327 334.511H288.584L292.57 309.574H294.497V305.003Z" fill="#72DD4F"/>
<path opacity="0.3" d="M294.497 305.003H272.415V309.574H274.342L278.327 334.511H288.584L292.57 309.574H294.497V305.003Z" fill="white"/>
<path d="M95.6904 166.787L70.005 158.402L67.7196 152.365L62.5014 152.201L53.0322 150.407L54.171 152.365L66.0894 161.015L69.03 162.482L95.8932 176.514L95.6904 166.787Z" fill="white" stroke="#263238" stroke-width="1.00396" stroke-miterlimit="10"/>
<path d="M67.7196 152.365L65.2704 150.899L60.3798 152.693L61.191 153.668L67.7196 152.365Z" fill="white" stroke="#263238" stroke-width="1.00396" stroke-linejoin="round"/>
<path d="M95.6904 166.787L70.005 158.402L67.7196 152.365L62.5014 152.201L53.0322 150.407L54.171 152.365L66.0894 161.015L69.03 162.482L95.8932 176.514L95.6904 166.787Z" fill="white"/>
<mask id="mask0_56_1846" style="mask-type:luminance" maskUnits="userSpaceOnUse" x="53" y="150" width="43" height="27">
<path d="M95.6904 166.787L70.005 158.402L67.7196 152.365L62.5014 152.201L53.0322 150.407L54.171 152.365L66.0894 161.015L69.03 162.482L95.8932 176.514L95.6904 166.787Z" fill="white"/>
</mask>
<g mask="url(#mask0_56_1846)">
<path opacity="0.5" d="M95.6904 166.787L70.005 158.402L67.7196 152.365L62.5014 152.201L53.0322 150.407L54.171 152.365L66.0894 161.015L69.03 162.482L95.8932 176.514L95.6904 166.787Z" fill="white" stroke="#263238" stroke-width="1.00396" stroke-miterlimit="10"/>
</g>
<path d="M95.6904 166.787L70.005 158.402L67.7196 152.365L62.5014 152.201L53.0322 150.407L54.171 152.365L66.0894 161.015L69.03 162.482L95.8932 176.514L95.6904 166.787Z" stroke="#263238" stroke-width="1.00396" stroke-miterlimit="10"/>
<path d="M67.7196 152.365L65.2704 150.899L60.3798 152.693L61.191 153.668L67.7196 152.365Z" fill="white"/>
<mask id="mask1_56_1846" style="mask-type:luminance" maskUnits="userSpaceOnUse" x="60" y="150" width="8" height="4">
<path d="M67.7196 152.365L65.2704 150.899L60.3798 152.693L61.191 153.668L67.7196 152.365Z" fill="white"/>
</mask>
<g mask="url(#mask1_56_1846)">
<path opacity="0.5" d="M67.7196 152.365L65.2704 150.899L60.3798 152.693L61.191 153.668L67.7196 152.365Z" fill="#71CC53" stroke="#263238" stroke-width="1.00396" stroke-linejoin="round"/>
</g>
<path d="M67.7196 152.365L65.2704 150.899L60.3798 152.693L61.191 153.668L67.7196 152.365Z" stroke="#263238" stroke-width="1.00396" stroke-linejoin="round"/>
<path d="M101.143 112.367C101.143 112.367 100.745 115.877 101.735 118.131C102.726 120.385 108.225 128.022 108.225 128.022L97.9602 136.25C97.9602 136.25 93.7014 127.67 92.8902 126.282C92.079 124.894 91.104 118.919 93.7482 114.637C96.3924 110.355 100.199 109.2 101.143 112.367Z" fill="white"/>
<mask id="mask2_56_1846" style="mask-type:luminance" maskUnits="userSpaceOnUse" x="92" y="110" width="17" height="27">
<path d="M101.143 112.367C101.143 112.367 100.745 115.877 101.735 118.131C102.726 120.385 108.225 128.022 108.225 128.022L97.9602 136.25C97.9602 136.25 93.7014 127.67 92.8902 126.282C92.079 124.894 91.104 118.919 93.7482 114.637C96.3924 110.355 100.199 109.2 101.143 112.367Z" fill="white"/>
</mask>
<g mask="url(#mask2_56_1846)">
<g style="mix-blend-mode:multiply" opacity="0.5">
<path d="M95.8698 123.646L100.324 132.881L97.9524 136.258L93.4752 128.263L95.8698 123.646Z" fill="#3B4D55" fill-opacity="0.22"/>
</g>
</g>
<path d="M101.143 112.367C101.143 112.367 100.745 115.877 101.735 118.131C102.726 120.385 108.225 128.022 108.225 128.022L97.9602 136.25C97.9602 136.25 93.7014 127.67 92.8902 126.282C92.079 124.894 91.104 118.919 93.7482 114.637C96.3924 110.355 100.199 109.2 101.143 112.367Z" stroke="#263238" stroke-width="1.00396" stroke-miterlimit="10"/>
<path d="M104.325 105.94C103.693 102.04 99.2238 94.107 92.1336 94.4112C87.5316 94.614 85.3788 95.5422 83.382 96.6732C81.7544 97.6322 80.2372 98.7674 78.858 100.058C75.3948 104.216 74.178 105.355 74.8488 108.537C74.7938 109.806 74.9927 111.074 75.4338 112.265C76.4946 115.097 77.22 116.945 78.1404 118.295C77.8596 119.613 77.1264 123.092 77.0874 123.887C77.0484 124.683 79.4274 124.129 80.6286 123.825C82.8594 128.817 86.9466 132.28 88.218 132.678C90.4332 133.372 93.9354 129.73 95.7918 126.906C97.6482 124.082 96.2442 120.908 96.252 119.644C96.2598 118.381 100.425 115.604 101.969 114.722C103.514 113.841 104.949 109.832 104.325 105.94Z" fill="white"/>
<mask id="mask3_56_1846" style="mask-type:luminance" maskUnits="userSpaceOnUse" x="74" y="94" width="31" height="39">
<path d="M104.325 105.94C103.693 102.04 99.2238 94.107 92.1336 94.4112C87.5316 94.614 85.3788 95.5422 83.382 96.6732C81.7544 97.6322 80.2372 98.7674 78.858 100.058C75.3948 104.216 74.178 105.355 74.8488 108.537C74.7938 109.806 74.9927 111.074 75.4338 112.265C76.4946 115.097 77.22 116.945 78.1404 118.295C77.8596 119.613 77.1264 123.092 77.0874 123.887C77.0484 124.683 79.4274 124.129 80.6286 123.825C82.8594 128.817 86.9466 132.28 88.218 132.678C90.4332 133.372 93.9354 129.73 95.7918 126.906C97.6482 124.082 96.2442 120.908 96.252 119.644C96.2598 118.381 100.425 115.604 101.969 114.722C103.514 113.841 104.949 109.832 104.325 105.94Z" fill="white"/>
</mask>
<g mask="url(#mask3_56_1846)">
<g style="mix-blend-mode:multiply" opacity="0.5">
<path d="M74.88 108.537C74.825 109.806 75.0239 111.074 75.465 112.265C76.5258 115.097 77.2512 116.945 78.1716 118.295C77.8908 119.613 77.1576 123.092 77.1186 123.887C77.0796 124.683 79.4586 124.129 80.6598 123.825C82.8906 128.817 86.9778 132.28 88.2492 132.678C90.4644 133.372 93.9666 129.73 95.823 126.906C96.2868 126.201 96.5879 125.402 96.7044 124.566C96.603 124.199 96.5328 123.973 96.5328 123.973C96.5328 123.973 95.4876 127.99 93.4128 127.468C91.338 126.945 88.1634 122.788 86.3928 121.352C84.6222 119.917 85.3476 118.03 84.9966 115.892C84.6456 113.755 79.404 111.875 79.053 110.651C78.702 109.426 79.9266 104.356 79.9266 104.356C79.9266 104.356 81.9156 101.704 81.4866 102.796C81.1834 103.743 81.0734 104.741 81.1632 105.731C81.253 106.722 81.5407 107.684 82.0092 108.56C82.338 109.252 82.8596 109.835 83.5113 110.237C84.163 110.64 84.9171 110.846 85.683 110.83L87.5862 101.4L83.5692 98.0773L78.8892 100.027C75.3948 104.216 74.2014 105.355 74.88 108.537Z" fill="white"/>
</g>
</g>
<path d="M104.325 105.94C103.693 102.04 99.2238 94.107 92.1336 94.4112C87.5316 94.614 85.3788 95.5422 83.382 96.6732C81.7544 97.6322 80.2372 98.7674 78.858 100.058C75.3948 104.216 74.178 105.355 74.8488 108.537C74.7938 109.806 74.9927 111.074 75.4338 112.265C76.4946 115.097 77.22 116.945 78.1404 118.295C77.8596 119.613 77.1264 123.092 77.0874 123.887C77.0484 124.683 79.4274 124.129 80.6286 123.825C82.8594 128.817 86.9466 132.28 88.218 132.678C90.4332 133.372 93.9354 129.73 95.7918 126.906C97.6482 124.082 96.2442 120.908 96.252 119.644C96.2598 118.381 100.425 115.604 101.969 114.722C103.514 113.841 104.949 109.832 104.325 105.94Z" stroke="#263238" stroke-miterlimit="10"/>
<path d="M79.1076 115.939L79.8876 118.17C79.8876 118.17 81.5646 118.724 83.6082 116.493" stroke="#263238" stroke-miterlimit="10" stroke-linecap="round"/>
<path d="M84.8718 126.36C84.8718 126.36 86.7282 126.173 87.477 123.568" stroke="#263238" stroke-miterlimit="10" stroke-linecap="round"/>
<path d="M77.805 114.075C77.805 114.075 78.3588 112.398 81.705 112.398" stroke="#263238" stroke-miterlimit="10" stroke-linecap="round"/>
<path d="M94.9572 91.3068C92.5257 90.9572 90.0737 90.7696 87.6174 90.7452C87.6174 90.7452 80.2698 86.5098 73.2108 91.026C66.1518 95.5422 69.5448 103.451 69.5448 105.425C69.5448 107.398 67.2828 107.406 68.6946 109.949C70.1064 112.492 74.88 111.088 74.88 111.088C74.9304 110.129 75.1839 109.191 75.6236 108.337C76.0633 107.483 76.6792 106.733 77.4306 106.135C79.9734 104.161 82.0014 103.732 82.8438 104.302C82.8438 104.302 82.2822 108.537 83.1246 110.23C83.1246 110.23 85.9482 111.641 86.7984 111.641C87.6486 111.641 86.2446 112.835 89.0604 113.896C89.5734 114.08 90.1221 114.143 90.6635 114.079C91.2048 114.015 91.7241 113.827 92.1804 113.529C92.5938 111.813 93.4986 109.231 95.1834 109.832C97.656 110.713 99.9102 116.797 96.564 118.872C100.589 119.605 105.464 112.484 105.752 105.994C106.041 99.5046 99.138 92.04 94.9572 91.3068Z" fill="#263238"/>
<path d="M82.9686 101.517C82.9686 101.517 85.0434 100.402 87.5862 102.788C90.129 105.175 95.0742 108.365 101.626 106.61" stroke="white" stroke-width="0.5" stroke-linecap="round" stroke-linejoin="round"/>
<path d="M82.68 99.606C82.68 99.606 84.1074 97.3752 86.4942 97.3752C88.881 97.3752 94.458 100.721 98.9118 100.721" stroke="white" stroke-width="0.5" stroke-linecap="round" stroke-linejoin="round"/>
<path d="M81.0576 103.904C81.0576 103.904 78.351 100.565 75.8082 103.272C73.2654 105.979 74.88 108.537 74.88 108.537" stroke="white" stroke-width="0.5" stroke-linecap="round" stroke-linejoin="round"/>
<path d="M70.239 106.135C71.79 104.736 72.7542 102.802 72.9378 100.721C73.2576 97.2193 78.039 94.1929 81.0576 97.0633" stroke="white" stroke-width="0.5" stroke-linecap="round" stroke-linejoin="round"/>
<path d="M75.1686 93.3973C75.1686 93.3973 79.95 88.7797 83.928 94.6687" stroke="white" stroke-width="0.5" stroke-linecap="round" stroke-linejoin="round"/>
<path d="M114.083 320.432C114.083 320.432 117.023 325.003 116.696 327.943L116.376 330.884C116.376 330.884 105.589 333.84 103.303 333.84C101.018 333.84 88.92 332.693 88.92 332.693L88.3974 330.619C88.3608 330.465 88.3781 330.304 88.4463 330.162C88.5144 330.02 88.6294 329.906 88.7718 329.839L99.5592 324.808L102.96 321.087L114.083 320.432Z" fill="white" stroke="#263238" stroke-width="1.00396" stroke-miterlimit="10"/>
<path d="M104.941 331.539C107.866 331.765 113.42 329.979 116.641 328.84L116.415 330.884C116.415 330.884 105.589 333.84 103.303 333.84C101.018 333.84 88.92 332.693 88.92 332.693L88.5456 331.211C90.48 331.219 101.072 331.243 104.941 331.539Z" fill="#71CC53" stroke="#263238" stroke-width="1.00396" stroke-miterlimit="10"/>
<path d="M99.5748 324.808L83.8734 331.64C83.8734 331.64 82.5318 335.002 83.8734 335.673C85.215 336.344 114.465 335.673 114.465 335.673C114.465 335.673 116.485 330.361 113.295 326.797C110.105 323.232 99.5748 324.808 99.5748 324.808Z" fill="white" stroke="#263238" stroke-width="1.00396" stroke-miterlimit="10"/>
<path d="M114.465 335.673C114.465 335.673 85.215 336.344 83.8734 335.673C83.226 335.345 83.2026 334.402 83.3508 333.505H114.98C114.876 334.242 114.704 334.968 114.465 335.673Z" fill="#71CC53" stroke="#263238" stroke-width="1.00396" stroke-miterlimit="10"/>
<path d="M92.1492 206.084C92.1492 206.084 88.0464 224.266 86.4942 235.638C84.942 247.01 84.0294 269.794 84.357 272.407C84.6846 275.02 101.018 318.802 101.018 318.802L102.648 322.702L114.083 320.416C114.083 320.416 108.857 303.755 106.899 294.606C104.941 285.457 100.659 270.426 100.659 267.813C100.659 265.2 110.799 215.296 111.524 212.02C112.25 208.744 115.541 203.713 115.541 203.713L93.6468 203.268L92.1492 206.084Z" fill="#71CC53" stroke="#263238" stroke-width="1.00396" stroke-miterlimit="10"/>
<path d="M92.1492 206.084C92.1492 206.084 89.7468 222.69 90.7374 234.234C91.728 245.778 93.8574 270.356 93.8574 274.014C93.8574 277.672 99.762 299.52 100.097 306.384C100.62 316.298 99.8868 321.204 99.8868 321.204L99.5358 324.8C99.5358 324.8 106.423 325.783 107.929 326.212C109.667 326.66 111.462 326.854 113.256 326.789C113.256 326.789 115.76 315.767 115.76 306.376C115.76 296.985 113.677 277.657 112.64 269.825C111.602 261.994 114.871 231.785 116.727 226.145C118.583 220.506 122.639 208.564 119.909 202.465C117.179 196.365 92.1492 206.084 92.1492 206.084Z" fill="#71CC53" stroke="#263238" stroke-width="1.00396" stroke-miterlimit="10"/>
<path d="M122.944 199.407L122.694 206.833C122.694 206.833 118.248 207.714 112.258 208.751C107.312 209.609 94.8948 208.525 90.714 208.12C90.333 208.086 89.9808 207.903 89.7339 207.611C89.487 207.319 89.3655 206.941 89.3958 206.56L89.8014 199.852L122.944 199.407Z" fill="#263238"/>
<path d="M105.565 125.385C105.565 125.385 98.5452 132.974 95.901 137.693C93.2568 142.412 92.2116 149.643 91.221 155.337C90.2304 161.031 92.9136 174.4 92.157 180.539L89.7624 199.875C89.7624 199.875 89.2476 201.185 90.9714 202.621C92.6952 204.056 101.111 204.578 108.716 204.961C111.493 205.101 119.785 203.315 121.142 203.229C122.78 203.128 122.834 201.045 122.905 199.407C123.232 191.708 124.621 171.187 125.533 162.248C127.413 144.019 117.125 126.422 105.565 125.385Z" fill="white" stroke="#263238" stroke-width="1.00396" stroke-miterlimit="10"/>
<g style="mix-blend-mode:multiply">
<path d="M124.675 172.614C124.987 168.566 125.299 164.892 125.572 162.248C125.65 161.468 125.697 160.688 125.736 159.908L107.086 163.028L91.065 157.568C91.0668 160.883 91.2542 164.195 91.6266 167.489L107.344 171.889L124.675 172.614Z" fill="#449C27"/>
</g>
<g style="mix-blend-mode:multiply">
<path d="M104.871 126.149C103.81 127.327 101.704 129.722 99.6996 132.265L111.54 144.3L115.44 142.74L104.871 126.149Z" fill="#449C27"/>
</g>
<path d="M105.565 125.385C105.565 125.385 98.5452 132.974 95.901 137.693C95.117 139.128 94.4818 140.638 94.0056 142.202L108.124 125.892C107.29 125.639 106.433 125.47 105.565 125.385Z" fill="#263238"/>
<g style="mix-blend-mode:multiply">
<path d="M91.767 152.264L107.086 157.303L125.689 155.165C125.398 150.531 124.368 145.973 122.639 141.664L107.64 147.677L94.2318 141.601C93.1354 145.086 92.3114 148.651 91.767 152.264Z" fill="#449C27"/>
</g>
<g style="mix-blend-mode:multiply">
<path d="M118.139 191.708C110.369 193.013 102.397 192.362 94.9416 189.813L91.2054 188.534L90.0432 197.894L94.302 199.087C102.398 201.351 110.86 202.003 119.207 201.006L122.647 200.593C122.826 200.214 122.927 199.802 122.944 199.384C123.037 197.301 123.201 194.275 123.412 190.804L118.139 191.708Z" fill="#449C27"/>
</g>
<g style="mix-blend-mode:multiply">
<path d="M120.221 178.963C112.451 180.273 104.477 179.619 97.0242 177.06L92.2662 175.43C92.3842 177.129 92.3608 178.835 92.196 180.531L91.6422 185.032L96.3846 186.358C104.478 188.624 112.937 189.278 121.282 188.284L123.622 188.003C123.817 184.883 124.043 181.561 124.285 178.277L120.221 178.963Z" fill="#449C27"/>
</g>
<path d="M47.0428 145.979L62.1244 158.104L62.7744 157.296L47.6928 145.17L47.0428 145.979Z" fill="#263238"/>
<path d="M112.827 133.801C112.827 133.801 118.357 137.569 118.482 146.468C118.537 150.368 118.131 154.011 117.234 160.399C116.337 166.787 110.768 187.59 106.431 190.117C102.094 192.644 95.3628 187.871 95.3628 187.871L62.8056 166.257L54.9354 159.9L51.0354 152.537L52.26 150.197L61.8618 157.56L56.6904 152.779L57.7044 151.492L59.5764 152.794L65.0364 154.838L66.2298 162.638L67.9146 163.792L99.06 175.172C99.06 175.172 98.67 158.41 98.9586 155.204C99.2472 151.999 99.645 143.941 103.077 138.099" fill="white"/>
<path d="M112.827 133.801C112.827 133.801 118.357 137.569 118.482 146.468C118.537 150.368 118.131 154.011 117.234 160.399C116.337 166.787 110.768 187.59 106.431 190.117C102.094 192.644 95.3628 187.871 95.3628 187.871L62.8056 166.257L54.9354 159.9L51.0354 152.537L52.26 150.197L61.8618 157.56L56.6904 152.779L57.7044 151.492L59.5764 152.794L65.0364 154.838L66.2298 162.638L67.9146 163.792L99.06 175.172C99.06 175.172 98.67 158.41 98.9586 155.204C99.2472 151.999 99.645 143.941 103.077 138.099" stroke="#263238" stroke-width="1.00396" stroke-miterlimit="10"/>
<path d="M99.06 175.172L110.947 183.752L114.028 178.292C114.028 178.292 116.158 176.615 116.47 175.352C116.782 174.088 116.384 172.037 116.704 170.773C117.023 169.51 118.615 168.324 118.763 165.266C118.911 162.209 118.763 159.658 118.763 159.658C118.763 159.658 121.337 149.074 121.056 144.472C120.775 139.87 116.337 131.734 112.78 131.555C109.223 131.375 104.598 131.914 101.01 137.342C97.422 142.771 98.1552 158.621 97.5936 159.611C97.032 160.602 97.812 165.493 97.812 165.493C97.5003 165.725 97.2417 166.021 97.0534 166.362C96.8651 166.702 96.7514 167.078 96.72 167.466C96.6576 168.737 98.0304 171.865 98.0304 171.865L99.06 175.172Z" fill="white" stroke="#263238" stroke-width="1.00396" stroke-miterlimit="10"/>
<g style="mix-blend-mode:multiply">
<path d="M97.9056 155.54C97.9301 156.901 97.8283 158.261 97.6014 159.604C97.1022 160.493 97.6716 164.51 97.7964 165.329C104.482 167.405 111.552 167.939 118.474 166.889C118.623 166.346 118.712 165.789 118.739 165.227C118.895 162.178 118.739 159.619 118.739 159.619C118.739 159.619 118.966 158.675 119.278 157.24C112.109 157.696 104.912 157.123 97.9056 155.54Z" fill="#449C27"/>
</g>
<g style="mix-blend-mode:multiply">
<path d="M100.526 138.208C99.411 140.447 98.787 143.809 98.4282 147.217C105.509 149.92 113.144 150.849 120.666 149.924C120.966 148.12 121.099 146.292 121.064 144.464C120.929 143.019 120.587 141.6 120.05 140.252C113.482 140.405 106.921 139.718 100.526 138.208Z" fill="#449C27"/>
</g>
<path d="M98.0304 171.951L99.0366 175.172L110.924 183.752L114.005 178.292C114.005 178.292 116.134 176.615 116.446 175.352C116.502 175.132 116.536 174.907 116.548 174.681C110.283 174.573 104.059 173.655 98.0304 171.951Z" fill="#449C27"/>
<path d="M106.634 326.11C106.634 326.11 106.899 319.355 108.194 309.481C109.489 299.606 106.376 285.581 105.854 283.241C105.331 280.901 106.119 275.707 105.596 273.881C105.074 272.056 102.547 264.272 104.036 255.239C105.526 246.207 106.735 222.331 106.735 222.331C106.735 222.331 102.983 219.281 101.884 215.311C100.784 211.341 101.626 210.093 101.626 210.093" stroke="#263238" stroke-width="1.00396" stroke-miterlimit="10"/>
<path d="M108.373 210.46L106.93 218.447" stroke="#263238" stroke-width="1.00396" stroke-miterlimit="10"/>
</svg>
