<svg width="409" height="383" viewBox="0 0 409 383" fill="none" xmlns="http://www.w3.org/2000/svg">
<path d="M128.076 66.429H54.1457C51.7834 66.429 49.5178 67.3674 47.8473 69.0378C46.1769 70.7083 45.2385 72.9739 45.2385 75.3362V102.949C45.2385 105.311 46.1769 107.577 47.8473 109.247C49.5178 110.918 51.7834 111.856 54.1457 111.856H127.631L136.983 124.326V75.3362C136.983 72.9739 136.045 70.7083 134.375 69.0378C132.704 67.3674 130.439 66.429 128.076 66.429Z" fill="#263238"/>
<path d="M61.3339 96.8295H58.6617V79.9056H61.3339V87.1473H64.3446V79.9056H67.0168V96.8295H64.3446V89.5879H61.3339V96.8295Z" fill="#92E3A9"/>
<path d="M68.9853 79.9324H71.6575V96.8562H68.9853V79.9324Z" fill="#92E3A9"/>
<path d="M76.5386 79.9324H84.7422V82.3462H81.9632V96.8295H79.291V82.3462H76.5208L76.5386 79.9324Z" fill="#92E3A9"/>
<path d="M88.5546 96.8295H85.8824V79.9056H88.5546V87.1473H91.5563V79.9056H94.2285V96.8295H91.5563V89.5879H88.5368L88.5546 96.8295Z" fill="#92E3A9"/>
<path d="M98.8602 87.0493H102.503V89.4632H98.8602V94.4156H103.447V96.8295H96.2059V79.9056H103.447V82.3195H98.8602V87.0493Z" fill="#92E3A9"/>
<path d="M110.636 96.8295C110.418 96.1607 110.336 95.455 110.395 94.7541V92.0819C110.395 90.5143 109.87 89.9353 108.614 89.9353H107.723V96.8117H105.051V79.8879H109.059C111.811 79.8879 112.996 81.1705 112.996 83.7715V85.0986C112.996 86.8356 112.435 87.9757 111.215 88.5279C112.542 89.0891 112.996 90.3628 112.996 92.0908V94.7007C112.948 95.3967 113.048 96.095 113.29 96.7493L110.636 96.8295ZM107.741 82.3463V87.5392H108.783C109.772 87.5392 110.377 87.1028 110.377 85.7578V84.0832C110.377 82.8807 109.968 82.3017 109.023 82.3017L107.741 82.3463Z" fill="#92E3A9"/>
<path d="M117.45 87.0493H121.093V89.4632H117.45V94.4156H122.028V96.8295H114.786V79.9056H122.028V82.3195H117.45V87.0493Z" fill="#92E3A9"/>
<path d="M124.014 93.0884L123.676 86.978V79.9324H126.348V86.978L126.01 93.0884H124.014ZM126.277 94.2731V96.8295H123.72V94.2731H126.277Z" fill="#92E3A9"/>
<path d="M252.778 67.3198C252.778 67.3198 249.482 66.1529 248.734 69.1012C247.986 72.0495 252.351 73.1451 252.885 73.1451C253.419 73.1451 254.266 72.4058 253.731 70.7045C253.197 69.0032 252.778 67.3198 252.778 67.3198Z" fill="#263238" stroke="#263238" stroke-linecap="round" stroke-linejoin="round"/>
<path d="M271.483 60.087C271.483 60.087 271.163 64.3447 271.163 66.0459C271.163 67.7472 272.944 68.3886 273.835 68.3886C274.726 68.3886 275.118 70.4105 274.583 72.5394C274.049 74.6682 272.241 75.9419 267.876 75.9419C263.511 75.9419 260.857 74.0269 260.75 72.6462C260.643 71.2656 261.703 65.2977 263.52 63.739C265.337 62.1802 271.483 60.087 271.483 60.087Z" fill="#263238" stroke="#263238" stroke-linecap="round" stroke-linejoin="round"/>
<path d="M255.548 73.1717V74.8196C255.549 75.0789 255.624 75.3326 255.764 75.5505C255.905 75.7684 256.105 75.9413 256.341 76.0488C257.106 76.3722 257.918 76.5678 258.746 76.6278C260.414 76.6281 262.062 76.2632 263.574 75.5589C263.783 75.4696 263.961 75.3206 264.087 75.1305C264.212 74.9404 264.278 74.7176 264.277 74.49V72.7709C264.275 72.6661 264.248 72.5633 264.197 72.4717C264.146 72.38 264.074 72.3022 263.986 72.245C263.898 72.1879 263.797 72.1532 263.693 72.1439C263.588 72.1347 263.483 72.1512 263.387 72.1919L263.039 72.3701C263.039 72.3701 257.784 73.0381 255.548 73.1717Z" fill="#92E3A9" stroke="#263238" stroke-linecap="round" stroke-linejoin="round"/>
<path d="M253.215 59.232C252.632 61.5718 252.239 63.9548 252.039 66.3578C251.718 70.2948 252.039 73.9112 253.633 74.018C254.727 74.02 255.799 73.7111 256.724 73.1273C256.724 73.1273 260.447 73.5549 261.721 72.9224L263.004 72.2811L263.957 66.046C263.957 66.046 264.064 56.3638 262.255 55.7225C260.447 55.0812 253.215 59.232 253.215 59.232Z" fill="white" stroke="#263238" stroke-linecap="round" stroke-linejoin="round"/>
<path d="M256.083 63.5964L255.237 65.8322C255.237 65.8322 253.526 66.2597 253.74 67.1059C253.954 67.9521 255.085 67.8274 255.085 67.8274" stroke="#263238" stroke-linecap="round" stroke-linejoin="round"/>
<path d="M258.817 64.5673C258.648 65.0305 258.301 65.3334 258.06 65.2443C257.82 65.1552 257.748 64.701 257.927 64.2289C258.105 63.7568 258.443 63.4539 258.693 63.5519C258.942 63.6499 259.013 64.1309 258.817 64.5673Z" fill="#263238"/>
<path d="M254.809 63.4895C254.631 63.9616 254.292 64.2644 254.043 64.1754C253.794 64.0863 253.74 63.6231 253.909 63.1599C254.079 62.6968 254.426 62.385 254.675 62.4741C254.925 62.5631 254.978 63.0263 254.809 63.4895Z" fill="#263238"/>
<path d="M257.998 61.5745C257.998 61.5745 260.02 61.0401 260.233 62.9641" stroke="#263238" stroke-linecap="round" stroke-linejoin="round"/>
<path d="M255.343 61.0401C255.343 61.0401 253.562 60.4077 253.001 61.9308" stroke="#263238" stroke-linecap="round" stroke-linejoin="round"/>
<path d="M256.724 73.1718L259.592 72.0049" stroke="#263238" stroke-linecap="round" stroke-linejoin="round"/>
<path d="M254.56 54.3329C254.56 54.3329 251.157 50.289 248.601 53.264C246.044 56.239 246.819 60.7194 251.371 60.9332C255.922 61.147 261.053 56.6755 261.053 56.6755C261.053 56.6755 260.518 62.5276 261.792 64.5495C263.066 66.5715 264.028 67.9521 264.028 67.9521C264.028 67.9521 265.809 69.119 268.82 66.7853C271.831 64.4516 272.543 58.7687 270.414 54.9653C268.286 51.1619 264.562 49.0063 260.091 50.5117C255.619 52.017 254.56 54.3329 254.56 54.3329Z" fill="#263238" stroke="#263238" stroke-linecap="round" stroke-linejoin="round"/>
<path d="M261.935 67.8542C261.935 67.8542 265.765 64.3447 265.765 66.3667C265.765 68.3886 263.983 70.1968 262.576 69.7693" fill="white"/>
<path d="M261.935 67.8542C261.935 67.8542 265.765 64.3447 265.765 66.3667C265.765 68.3886 263.983 70.1968 262.576 69.7693" stroke="#263238" stroke-linecap="round" stroke-linejoin="round"/>
<path d="M253.74 69.4753C254.243 69.8377 254.848 70.0327 255.468 70.0327C256.088 70.0327 256.693 69.8377 257.196 69.4753" stroke="#263238" stroke-linecap="round" stroke-linejoin="round"/>
<path d="M273.506 76.2009C280.308 68.9631 279.954 57.5818 272.716 50.7803C265.478 43.9787 254.097 44.3324 247.296 51.5703C240.494 58.8081 240.848 70.1894 248.086 76.9909C255.324 83.7925 266.705 83.4388 273.506 76.2009Z" stroke="#263238" stroke-linecap="round" stroke-linejoin="round"/>
<path d="M382.784 210.181C393.006 207.791 399.356 197.567 396.966 187.345C394.575 177.123 384.351 170.773 374.129 173.163C363.907 175.553 357.558 185.778 359.948 196C362.338 206.222 372.562 212.571 382.784 210.181Z" stroke="#263238" stroke-linecap="round" stroke-linejoin="round"/>
<path d="M384.944 197.277C384.944 198.528 384.573 199.75 383.878 200.79C383.184 201.83 382.196 202.641 381.04 203.12C379.885 203.598 378.613 203.724 377.386 203.48C376.16 203.236 375.033 202.633 374.148 201.749C373.264 200.864 372.662 199.737 372.417 198.511C372.173 197.284 372.299 196.012 372.777 194.857C373.256 193.701 374.067 192.713 375.107 192.019C376.147 191.324 377.369 190.953 378.62 190.953C380.297 190.953 381.906 191.619 383.092 192.805C384.278 193.991 384.944 195.6 384.944 197.277Z" fill="#92E3A9" stroke="#263238" stroke-linecap="round" stroke-linejoin="round"/>
<path d="M387.661 201.49C389.025 199.787 389.881 197.734 390.129 195.566C390.377 193.398 390.008 191.204 389.063 189.237C388.119 187.27 386.638 185.61 384.791 184.448C382.944 183.286 380.807 182.67 378.625 182.67C376.443 182.67 374.305 183.286 372.458 184.448C370.611 185.61 369.13 187.27 368.186 189.237C367.242 191.204 366.872 193.398 367.12 195.566C367.368 197.734 368.224 199.787 369.588 201.49H387.661Z" fill="white" stroke="#263238" stroke-linecap="round" stroke-linejoin="round"/>
<path d="M383.136 198.212H373.819C373.274 198.212 372.734 198.105 372.231 197.896C371.727 197.688 371.27 197.382 370.884 196.996C370.499 196.611 370.193 196.153 369.984 195.65C369.776 195.146 369.668 194.606 369.668 194.061C369.667 193.516 369.774 192.976 369.982 192.472C370.19 191.967 370.496 191.509 370.881 191.124C371.267 190.738 371.725 190.432 372.229 190.224C372.733 190.016 373.274 189.909 373.819 189.911H383.136C383.682 189.909 384.222 190.016 384.726 190.224C385.23 190.432 385.688 190.738 386.074 191.124C386.459 191.509 386.765 191.967 386.973 192.472C387.182 192.976 387.288 193.516 387.287 194.061C387.287 195.162 386.85 196.218 386.071 196.996C385.293 197.775 384.237 198.212 383.136 198.212Z" fill="#92E3A9" stroke="#263238" stroke-linecap="round" stroke-linejoin="round"/>
<path d="M371.574 193.723C371.765 193.188 372.113 192.724 372.573 192.391C373.032 192.058 373.581 191.871 374.149 191.856C374.716 191.84 375.275 191.997 375.752 192.304C376.229 192.612 376.601 193.057 376.821 193.58" stroke="#263238" stroke-width="2" stroke-linecap="round" stroke-linejoin="round"/>
<path d="M380.286 193.723C380.477 193.188 380.824 192.724 381.284 192.391C381.743 192.058 382.293 191.871 382.86 191.856C383.427 191.84 383.986 191.997 384.463 192.304C384.94 192.612 385.313 193.057 385.532 193.58" stroke="#263238" stroke-width="2" stroke-linecap="round" stroke-linejoin="round"/>
<path d="M377.097 195.647C377.139 196.038 377.324 196.401 377.616 196.664C377.909 196.927 378.289 197.073 378.682 197.073C379.076 197.073 379.456 196.927 379.749 196.664C380.041 196.401 380.226 196.038 380.268 195.647H377.097Z" fill="white" stroke="#263238" stroke-linecap="round" stroke-linejoin="round"/>
<path d="M393.593 196.306C393.434 196.306 393.277 196.275 393.13 196.214C392.983 196.153 392.849 196.064 392.737 195.951C392.624 195.839 392.535 195.705 392.474 195.558C392.413 195.411 392.382 195.254 392.382 195.095V192.342C392.382 192.183 392.413 192.026 392.474 191.879C392.535 191.732 392.624 191.598 392.737 191.486C392.849 191.373 392.983 191.284 393.13 191.223C393.277 191.162 393.434 191.131 393.593 191.131C393.752 191.131 393.91 191.162 394.057 191.223C394.204 191.284 394.337 191.373 394.45 191.486C394.562 191.598 394.652 191.732 394.712 191.879C394.773 192.026 394.805 192.183 394.805 192.342V195.068C394.808 195.229 394.779 195.39 394.72 195.54C394.661 195.69 394.572 195.827 394.459 195.942C394.347 196.057 394.212 196.149 394.063 196.211C393.914 196.274 393.755 196.306 393.593 196.306Z" fill="#263238" stroke="#263238" stroke-linecap="round" stroke-linejoin="round"/>
<path d="M363.326 196.306C363.167 196.306 363.01 196.275 362.863 196.214C362.716 196.153 362.582 196.064 362.47 195.951C362.357 195.839 362.268 195.705 362.207 195.558C362.146 195.411 362.115 195.254 362.115 195.095V192.342C362.115 192.183 362.146 192.026 362.207 191.879C362.268 191.732 362.357 191.598 362.47 191.486C362.582 191.373 362.716 191.284 362.863 191.223C363.01 191.162 363.167 191.131 363.326 191.131C363.485 191.131 363.643 191.162 363.79 191.223C363.937 191.284 364.07 191.373 364.183 191.486C364.295 191.598 364.385 191.732 364.446 191.879C364.506 192.026 364.538 192.183 364.538 192.342V195.068C364.541 195.229 364.513 195.39 364.453 195.54C364.394 195.69 364.305 195.827 364.192 195.942C364.08 196.057 363.945 196.149 363.796 196.211C363.647 196.274 363.488 196.306 363.326 196.306Z" fill="#263238" stroke="#263238" stroke-linecap="round" stroke-linejoin="round"/>
<path d="M365.562 192.511C365.226 192.509 364.904 192.374 364.667 192.135C364.43 191.897 364.297 191.574 364.297 191.238V189.243C364.293 187.081 364.939 184.967 366.15 183.177C366.237 183.024 366.354 182.891 366.495 182.786C366.636 182.681 366.797 182.606 366.968 182.566C367.139 182.526 367.317 182.522 367.489 182.554C367.662 182.587 367.826 182.654 367.972 182.753C368.117 182.851 368.24 182.979 368.334 183.127C368.428 183.276 368.49 183.442 368.516 183.616C368.543 183.79 368.533 183.967 368.487 184.136C368.442 184.306 368.362 184.465 368.252 184.602C367.326 185.972 366.832 187.589 366.836 189.243V191.238C366.836 191.576 366.702 191.9 366.463 192.138C366.224 192.377 365.9 192.511 365.562 192.511Z" fill="#263238"/>
<path d="M390.164 184.531C390.059 184.531 389.957 184.505 389.865 184.455C389.773 184.405 389.695 184.333 389.638 184.246C388.822 183.028 387.717 182.031 386.423 181.343C385.129 180.654 383.685 180.296 382.219 180.3H375.146C373.68 180.296 372.236 180.654 370.942 181.343C369.647 182.031 368.543 183.028 367.726 184.246C367.631 184.386 367.483 184.483 367.316 184.515C367.149 184.546 366.976 184.51 366.836 184.415C366.765 184.368 366.705 184.308 366.658 184.238C366.611 184.167 366.579 184.088 366.563 184.005C366.547 183.922 366.548 183.837 366.566 183.754C366.584 183.671 366.618 183.593 366.667 183.524C367.6 182.136 368.862 180.998 370.339 180.212C371.816 179.426 373.464 179.016 375.137 179.017H382.21C383.885 179.016 385.535 179.427 387.014 180.215C388.493 181.003 389.755 182.142 390.689 183.533C390.738 183.603 390.771 183.681 390.788 183.764C390.805 183.847 390.806 183.933 390.789 184.016C390.772 184.099 390.739 184.178 390.692 184.248C390.644 184.318 390.583 184.378 390.511 184.424C390.408 184.492 390.288 184.529 390.164 184.531Z" fill="#263238"/>
<path d="M391.803 192.511C391.465 192.511 391.141 192.377 390.902 192.138C390.663 191.9 390.529 191.576 390.529 191.238V189.243C390.532 187.589 390.039 185.972 389.113 184.602C389.007 184.464 388.93 184.305 388.887 184.136C388.845 183.967 388.837 183.791 388.865 183.62C388.893 183.448 388.956 183.283 389.051 183.137C389.145 182.99 389.268 182.864 389.413 182.767C389.557 182.67 389.72 182.604 389.892 182.572C390.063 182.541 390.239 182.545 390.409 182.584C390.579 182.623 390.739 182.697 390.879 182.8C391.019 182.904 391.136 183.035 391.224 183.186C392.432 184.974 393.074 187.084 393.068 189.243V191.238C393.068 191.574 392.935 191.897 392.698 192.135C392.461 192.374 392.139 192.509 391.803 192.511Z" fill="#263238"/>
<path d="M365.722 198.105C365.056 198.105 364.417 197.841 363.946 197.37C363.475 196.898 363.211 196.26 363.211 195.593V191.603C363.211 190.937 363.475 190.298 363.946 189.827C364.417 189.356 365.056 189.091 365.722 189.091C366.389 189.091 367.027 189.356 367.498 189.827C367.97 190.298 368.234 190.937 368.234 191.603V195.593C368.234 196.26 367.97 196.898 367.498 197.37C367.027 197.841 366.389 198.105 365.722 198.105Z" fill="white" stroke="#263238" stroke-linecap="round" stroke-linejoin="round"/>
<path d="M365.981 189.091H365.464V198.105H365.981V189.091Z" fill="#92E3A9" stroke="#263238" stroke-linecap="round" stroke-linejoin="round"/>
<path d="M393.852 191.603C393.852 190.216 392.727 189.091 391.34 189.091C389.952 189.091 388.828 190.216 388.828 191.603V195.593C388.828 196.981 389.952 198.105 391.34 198.105C392.727 198.105 393.852 196.981 393.852 195.593V191.603Z" fill="white" stroke="#263238" stroke-linecap="round" stroke-linejoin="round"/>
<path d="M391.598 189.091H391.081V198.105H391.598V189.091Z" fill="#92E3A9" stroke="#263238" stroke-linecap="round" stroke-linejoin="round"/>
<path d="M378.665 188.272C379.55 188.268 380.42 188.045 381.197 187.622C381.974 187.199 382.635 186.59 383.118 185.849L384.214 184.148C382.477 183.186 380.522 182.69 378.537 182.705C376.552 182.721 374.605 183.248 372.884 184.237L374.523 186.285C375.022 186.904 375.653 187.403 376.369 187.746C377.086 188.09 377.87 188.269 378.665 188.272Z" fill="#92E3A9" stroke="#263238" stroke-linecap="round" stroke-linejoin="round"/>
<path d="M378.754 199.237C378.857 199.237 378.941 199.153 378.941 199.049C378.941 198.946 378.857 198.862 378.754 198.862C378.65 198.862 378.567 198.946 378.567 199.049C378.567 199.153 378.65 199.237 378.754 199.237Z" fill="#263238"/>
<path d="M378.941 199.7C378.938 199.652 378.918 199.606 378.883 199.573C378.848 199.54 378.802 199.521 378.754 199.522C378.73 199.52 378.705 199.524 378.683 199.532C378.66 199.541 378.639 199.554 378.622 199.57C378.604 199.587 378.591 199.607 378.581 199.629C378.571 199.652 378.567 199.676 378.567 199.7C378.567 199.749 378.586 199.797 378.621 199.832C378.657 199.867 378.704 199.887 378.754 199.887C378.803 199.887 378.851 199.867 378.886 199.832C378.921 199.797 378.941 199.749 378.941 199.7Z" fill="#263238"/>
<path d="M378.201 199.602C378.249 199.587 378.288 199.555 378.311 199.512C378.335 199.468 378.34 199.417 378.326 199.37C378.308 199.324 378.274 199.285 378.229 199.262C378.185 199.239 378.134 199.233 378.086 199.245C378.039 199.26 377.999 199.292 377.976 199.336C377.952 199.379 377.947 199.43 377.961 199.477C377.979 199.523 378.013 199.562 378.058 199.585C378.102 199.608 378.153 199.614 378.201 199.602Z" fill="#263238"/>
<path d="M379.368 199.602C379.415 199.587 379.455 199.555 379.478 199.512C379.502 199.468 379.507 199.417 379.493 199.37C379.477 199.322 379.443 199.283 379.398 199.26C379.353 199.236 379.301 199.231 379.252 199.245C379.229 199.252 379.208 199.264 379.189 199.28C379.171 199.295 379.156 199.315 379.145 199.336C379.134 199.358 379.128 199.382 379.126 199.406C379.125 199.43 379.128 199.454 379.137 199.477C379.151 199.524 379.184 199.564 379.227 199.587C379.27 199.61 379.321 199.616 379.368 199.602Z" fill="#263238"/>
<path d="M355.105 94.5493H284.23V62.973V54.6002L292.611 62.973H355.105V94.5493Z" fill="#D6D6D6" stroke="#263238" stroke-linecap="round" stroke-linejoin="round"/>
<path d="M355.105 140.288H284.23V108.721V100.348L292.611 108.721H355.105V140.288Z" fill="#D6D6D6" stroke="#263238" stroke-linecap="round" stroke-linejoin="round"/>
<path d="M331.554 73.8398H348.237" stroke="#263238" stroke-linecap="round" stroke-linejoin="round"/>
<path d="M308.208 73.8398H327.27" stroke="#263238" stroke-linecap="round" stroke-linejoin="round"/>
<path d="M293.912 73.8398H304.868" stroke="#263238" stroke-linecap="round" stroke-linejoin="round"/>
<path d="M323.929 79.0862H348.237" stroke="#263238" stroke-linecap="round" stroke-linejoin="round"/>
<path d="M293.912 79.0862H319.645" stroke="#263238" stroke-linecap="round" stroke-linejoin="round"/>
<path d="M343.472 84.3237H348.237" stroke="#263238" stroke-linecap="round" stroke-linejoin="round"/>
<path d="M316.786 84.3237H339.66" stroke="#263238" stroke-linecap="round" stroke-linejoin="round"/>
<path d="M293.912 84.3237H312.973" stroke="#263238" stroke-linecap="round" stroke-linejoin="round"/>
<path d="M331.554 118.154H348.237" stroke="#263238" stroke-linecap="round" stroke-linejoin="round"/>
<path d="M308.208 118.154H327.27" stroke="#263238" stroke-linecap="round" stroke-linejoin="round"/>
<path d="M293.912 118.154H304.868" stroke="#263238" stroke-linecap="round" stroke-linejoin="round"/>
<path d="M323.929 123.4H348.237" stroke="#263238" stroke-linecap="round" stroke-linejoin="round"/>
<path d="M293.912 123.4H319.645" stroke="#263238" stroke-linecap="round" stroke-linejoin="round"/>
<path d="M343.472 128.637H348.237" stroke="#263238" stroke-linecap="round" stroke-linejoin="round"/>
<path d="M316.786 128.637H339.66" stroke="#263238" stroke-linecap="round" stroke-linejoin="round"/>
<path d="M293.912 128.637H312.973" stroke="#263238" stroke-linecap="round" stroke-linejoin="round"/>
<path d="M284.23 268.918H355.105V192.556V184.183L346.723 192.556H284.23V268.918Z" fill="#92E3A9" stroke="#263238" stroke-linecap="round" stroke-linejoin="round"/>
<path d="M331.554 202.978H348.237" stroke="#263238" stroke-linecap="round" stroke-linejoin="round"/>
<path d="M308.208 202.978H327.27" stroke="#263238" stroke-linecap="round" stroke-linejoin="round"/>
<path d="M293.912 202.978H304.868" stroke="#263238" stroke-linecap="round" stroke-linejoin="round"/>
<path d="M323.929 208.215H348.237" stroke="#263238" stroke-linecap="round" stroke-linejoin="round"/>
<path d="M293.912 208.215H319.645" stroke="#263238" stroke-linecap="round" stroke-linejoin="round"/>
<path d="M343.472 213.461H348.237" stroke="#263238" stroke-linecap="round" stroke-linejoin="round"/>
<path d="M316.786 213.461H339.66" stroke="#263238" stroke-linecap="round" stroke-linejoin="round"/>
<path d="M293.912 213.461H312.973" stroke="#263238" stroke-linecap="round" stroke-linejoin="round"/>
<path d="M331.554 217.746H348.237" stroke="#263238" stroke-linecap="round" stroke-linejoin="round"/>
<path d="M308.208 217.746H327.27" stroke="#263238" stroke-linecap="round" stroke-linejoin="round"/>
<path d="M293.912 217.746H304.868" stroke="#263238" stroke-linecap="round" stroke-linejoin="round"/>
<path d="M323.929 222.992H348.237" stroke="#263238" stroke-linecap="round" stroke-linejoin="round"/>
<path d="M293.912 222.992H319.645" stroke="#263238" stroke-linecap="round" stroke-linejoin="round"/>
<path d="M343.472 228.23H348.237" stroke="#263238" stroke-linecap="round" stroke-linejoin="round"/>
<path d="M316.786 228.23H339.66" stroke="#263238" stroke-linecap="round" stroke-linejoin="round"/>
<path d="M293.912 228.23H312.973" stroke="#263238" stroke-linecap="round" stroke-linejoin="round"/>
<path d="M331.554 232.523H348.237" stroke="#263238" stroke-linecap="round" stroke-linejoin="round"/>
<path d="M308.208 232.523H327.27" stroke="#263238" stroke-linecap="round" stroke-linejoin="round"/>
<path d="M293.912 232.523H304.868" stroke="#263238" stroke-linecap="round" stroke-linejoin="round"/>
<path d="M323.929 237.76H348.237" stroke="#263238" stroke-linecap="round" stroke-linejoin="round"/>
<path d="M293.912 237.76H319.645" stroke="#263238" stroke-linecap="round" stroke-linejoin="round"/>
<path d="M343.472 243.007H348.237" stroke="#263238" stroke-linecap="round" stroke-linejoin="round"/>
<path d="M316.786 243.007H339.66" stroke="#263238" stroke-linecap="round" stroke-linejoin="round"/>
<path d="M293.912 243.007H312.973" stroke="#263238" stroke-linecap="round" stroke-linejoin="round"/>
<path d="M331.554 247.291H348.237" stroke="#263238" stroke-linecap="round" stroke-linejoin="round"/>
<path d="M308.208 247.291H327.27" stroke="#263238" stroke-linecap="round" stroke-linejoin="round"/>
<path d="M293.912 247.291H304.868" stroke="#263238" stroke-linecap="round" stroke-linejoin="round"/>
<path d="M323.929 252.538H348.237" stroke="#263238" stroke-linecap="round" stroke-linejoin="round"/>
<path d="M293.912 252.538H319.645" stroke="#263238" stroke-linecap="round" stroke-linejoin="round"/>
<path d="M343.472 257.775H348.237" stroke="#263238" stroke-linecap="round" stroke-linejoin="round"/>
<path d="M316.786 257.775H339.66" stroke="#263238" stroke-linecap="round" stroke-linejoin="round"/>
<path d="M293.912 257.775H312.973" stroke="#263238" stroke-linecap="round" stroke-linejoin="round"/>
<path d="M378.46 311.379C388.958 311.379 397.468 302.869 397.468 292.371C397.468 281.873 388.958 273.363 378.46 273.363C367.962 273.363 359.452 281.873 359.452 292.371C359.452 302.869 367.962 311.379 378.46 311.379Z" stroke="#263238" stroke-linecap="round" stroke-linejoin="round"/>
<path d="M384.944 297.974C384.946 299.225 384.577 300.448 383.883 301.49C383.189 302.531 382.202 303.343 381.046 303.823C379.891 304.303 378.619 304.429 377.392 304.186C376.164 303.943 375.037 303.342 374.151 302.458C373.266 301.573 372.663 300.447 372.418 299.22C372.173 297.993 372.298 296.721 372.777 295.564C373.255 294.408 374.065 293.42 375.106 292.725C376.146 292.03 377.369 291.658 378.62 291.658C380.296 291.658 381.903 292.323 383.089 293.508C384.275 294.692 384.942 296.298 384.944 297.974Z" fill="#92E3A9" stroke="#263238" stroke-linecap="round" stroke-linejoin="round"/>
<path d="M387.661 302.187C389.025 300.484 389.881 298.43 390.129 296.263C390.377 294.095 390.008 291.901 389.063 289.934C388.119 287.967 386.638 286.307 384.791 285.145C382.944 283.983 380.807 283.367 378.625 283.367C376.443 283.367 374.305 283.983 372.458 285.145C370.611 286.307 369.13 287.967 368.186 289.934C367.242 291.901 366.872 294.095 367.12 296.263C367.368 298.43 368.224 300.484 369.588 302.187H387.661Z" fill="white" stroke="#263238" stroke-linecap="round" stroke-linejoin="round"/>
<path d="M383.136 298.909H373.819C373.274 298.909 372.734 298.802 372.231 298.593C371.727 298.384 371.269 298.079 370.884 297.693C370.499 297.308 370.193 296.85 369.984 296.347C369.776 295.843 369.668 295.303 369.668 294.758C369.668 294.213 369.776 293.673 369.984 293.17C370.193 292.666 370.499 292.208 370.884 291.823C371.269 291.438 371.727 291.132 372.231 290.923C372.734 290.715 373.274 290.607 373.819 290.607H383.136C383.681 290.607 384.221 290.715 384.725 290.923C385.228 291.132 385.686 291.438 386.071 291.823C386.457 292.208 386.762 292.666 386.971 293.17C387.18 293.673 387.287 294.213 387.287 294.758C387.287 295.859 386.85 296.915 386.071 297.693C385.293 298.472 384.237 298.909 383.136 298.909Z" fill="#92E3A9" stroke="#263238" stroke-linecap="round" stroke-linejoin="round"/>
<path d="M371.574 294.42C371.765 293.885 372.113 293.421 372.573 293.088C373.032 292.754 373.581 292.568 374.149 292.552C374.716 292.537 375.275 292.693 375.752 293.001C376.229 293.309 376.601 293.754 376.821 294.277" stroke="#263238" stroke-width="2" stroke-linecap="round" stroke-linejoin="round"/>
<path d="M380.286 294.42C380.477 293.885 380.824 293.421 381.284 293.088C381.743 292.754 382.293 292.568 382.86 292.552C383.427 292.537 383.986 292.693 384.463 293.001C384.94 293.309 385.313 293.754 385.532 294.277" stroke="#263238" stroke-width="2" stroke-linecap="round" stroke-linejoin="round"/>
<path d="M377.097 296.344C377.139 296.735 377.324 297.097 377.616 297.361C377.909 297.624 378.289 297.77 378.682 297.77C379.076 297.77 379.456 297.624 379.749 297.361C380.041 297.097 380.226 296.735 380.268 296.344H377.097Z" fill="white" stroke="#263238" stroke-linecap="round" stroke-linejoin="round"/>
<path d="M393.593 297.003C393.272 297.003 392.964 296.875 392.737 296.648C392.509 296.421 392.382 296.113 392.382 295.791V293.048C392.382 292.727 392.509 292.419 392.737 292.191C392.964 291.964 393.272 291.837 393.593 291.837C393.914 291.837 394.223 291.964 394.45 292.191C394.677 292.419 394.805 292.727 394.805 293.048V295.8C394.802 296.12 394.674 296.426 394.447 296.651C394.22 296.876 393.913 297.003 393.593 297.003Z" fill="#263238" stroke="#263238" stroke-linecap="round" stroke-linejoin="round"/>
<path d="M363.326 297.003C363.005 297.003 362.697 296.875 362.47 296.648C362.243 296.421 362.115 296.113 362.115 295.791V293.048C362.115 292.727 362.243 292.419 362.47 292.191C362.697 291.964 363.005 291.837 363.326 291.837C363.648 291.837 363.956 291.964 364.183 292.191C364.41 292.419 364.538 292.727 364.538 293.048V295.8C364.535 296.12 364.407 296.426 364.18 296.651C363.953 296.876 363.646 297.003 363.326 297.003Z" fill="#263238" stroke="#263238" stroke-linecap="round" stroke-linejoin="round"/>
<path d="M365.562 293.217C365.226 293.215 364.904 293.08 364.667 292.841C364.43 292.602 364.297 292.28 364.297 291.943V289.939C364.295 287.778 364.94 285.665 366.15 283.873C366.35 283.623 366.637 283.457 366.954 283.409C367.271 283.361 367.595 283.434 367.86 283.614C368.125 283.794 368.313 284.067 368.386 284.38C368.458 284.692 368.411 285.02 368.252 285.299C367.326 286.669 366.832 288.285 366.836 289.939V291.943C366.836 292.281 366.702 292.605 366.463 292.844C366.224 293.083 365.9 293.217 365.562 293.217Z" fill="#263238"/>
<path d="M390.164 285.227C390.061 285.227 389.959 285.202 389.867 285.154C389.776 285.106 389.697 285.036 389.638 284.951C388.823 283.732 387.719 282.733 386.424 282.043C385.13 281.353 383.685 280.994 382.219 280.996H375.146C373.681 280.997 372.239 281.358 370.945 282.046C369.652 282.734 368.546 283.728 367.726 284.942C367.68 285.011 367.62 285.07 367.55 285.116C367.48 285.162 367.403 285.194 367.321 285.21C367.239 285.225 367.155 285.225 367.073 285.208C366.991 285.191 366.914 285.158 366.845 285.112C366.776 285.065 366.717 285.005 366.671 284.935C366.625 284.866 366.593 284.788 366.577 284.706C366.562 284.624 366.562 284.54 366.579 284.458C366.596 284.376 366.629 284.299 366.675 284.23C367.609 282.841 368.87 281.704 370.348 280.918C371.825 280.132 373.473 279.721 375.146 279.723H382.219C383.894 279.723 385.543 280.135 387.022 280.923C388.5 281.71 389.763 282.849 390.698 284.239C390.746 284.308 390.78 284.387 390.797 284.47C390.814 284.553 390.815 284.639 390.798 284.722C390.781 284.805 390.748 284.884 390.7 284.954C390.653 285.024 390.591 285.084 390.52 285.129C390.414 285.196 390.29 285.23 390.164 285.227Z" fill="#263238"/>
<path d="M391.803 293.217C391.465 293.217 391.141 293.083 390.902 292.844C390.663 292.605 390.529 292.281 390.529 291.943V289.939C390.531 288.288 390.038 286.675 389.113 285.308C389.016 285.169 388.947 285.013 388.911 284.847C388.875 284.682 388.872 284.511 388.903 284.345C388.934 284.178 388.997 284.02 389.09 283.878C389.183 283.736 389.302 283.615 389.443 283.52C389.583 283.425 389.741 283.36 389.907 283.327C390.073 283.294 390.243 283.294 390.409 283.328C390.575 283.361 390.733 283.428 390.872 283.523C391.012 283.618 391.132 283.74 391.224 283.882C392.431 285.671 393.073 287.781 393.068 289.939V291.943C393.068 292.28 392.935 292.602 392.698 292.841C392.461 293.08 392.139 293.215 391.803 293.217Z" fill="#263238"/>
<path d="M365.722 298.811C365.056 298.811 364.417 298.546 363.946 298.075C363.475 297.604 363.211 296.965 363.211 296.299V292.3C363.211 291.634 363.475 290.995 363.946 290.524C364.417 290.053 365.056 289.788 365.722 289.788C366.389 289.788 367.027 290.053 367.498 290.524C367.97 290.995 368.234 291.634 368.234 292.3V296.299C368.232 296.965 367.966 297.602 367.496 298.073C367.025 298.543 366.388 298.809 365.722 298.811Z" fill="white" stroke="#263238" stroke-linecap="round" stroke-linejoin="round"/>
<path d="M365.981 289.788H365.464V298.802H365.981V289.788Z" fill="#92E3A9" stroke="#263238" stroke-linecap="round" stroke-linejoin="round"/>
<path d="M393.852 292.3C393.852 290.913 392.727 289.788 391.34 289.788C389.952 289.788 388.828 290.913 388.828 292.3V296.29C388.828 297.678 389.952 298.802 391.34 298.802C392.727 298.802 393.852 297.678 393.852 296.29V292.3Z" fill="white" stroke="#263238" stroke-linecap="round" stroke-linejoin="round"/>
<path d="M391.598 289.788H391.081V298.802H391.598V289.788Z" fill="#92E3A9" stroke="#263238" stroke-linecap="round" stroke-linejoin="round"/>
<path d="M378.665 288.968C379.55 288.965 380.42 288.742 381.197 288.319C381.974 287.896 382.635 287.287 383.118 286.546L384.214 284.853C382.477 283.895 380.522 283.399 378.538 283.413C376.554 283.427 374.607 283.951 372.884 284.933L374.523 286.982C375.022 287.6 375.653 288.099 376.369 288.443C377.086 288.787 377.87 288.966 378.665 288.968Z" fill="#92E3A9" stroke="#263238" stroke-linecap="round" stroke-linejoin="round"/>
<path d="M378.754 299.933C378.857 299.933 378.941 299.85 378.941 299.746C378.941 299.643 378.857 299.559 378.754 299.559C378.65 299.559 378.567 299.643 378.567 299.746C378.567 299.85 378.65 299.933 378.754 299.933Z" fill="#263238"/>
<path d="M378.754 300.592C378.857 300.592 378.941 300.509 378.941 300.405C378.941 300.302 378.857 300.218 378.754 300.218C378.65 300.218 378.567 300.302 378.567 300.405C378.567 300.509 378.65 300.592 378.754 300.592Z" fill="#263238"/>
<path d="M378.201 300.299C378.249 300.284 378.288 300.252 378.311 300.208C378.335 300.165 378.34 300.114 378.326 300.067C378.308 300.02 378.274 299.982 378.229 299.959C378.185 299.936 378.134 299.93 378.086 299.942C378.04 299.958 378.002 299.991 377.979 300.034C377.956 300.077 377.949 300.127 377.961 300.174C377.968 300.198 377.98 300.221 377.996 300.24C378.012 300.26 378.032 300.276 378.054 300.288C378.077 300.299 378.102 300.306 378.127 300.308C378.152 300.31 378.177 300.307 378.201 300.299Z" fill="#263238"/>
<path d="M379.368 300.299C379.415 300.284 379.455 300.252 379.478 300.208C379.502 300.165 379.507 300.114 379.493 300.067C379.477 300.019 379.443 299.98 379.398 299.956C379.353 299.933 379.301 299.928 379.252 299.942C379.229 299.949 379.208 299.961 379.189 299.977C379.171 299.992 379.156 300.011 379.145 300.033C379.134 300.055 379.128 300.078 379.126 300.103C379.125 300.127 379.128 300.151 379.137 300.174C379.143 300.198 379.154 300.22 379.169 300.24C379.184 300.259 379.203 300.275 379.225 300.287C379.247 300.299 379.271 300.306 379.295 300.308C379.32 300.31 379.345 300.307 379.368 300.299Z" fill="#263238"/>
<path d="M284.23 338.324H355.105V293.253V284.88L346.723 293.253H284.23V338.324Z" fill="#92E3A9" stroke="#263238" stroke-linecap="round" stroke-linejoin="round"/>
<path d="M331.554 303.674H348.237" stroke="#263238" stroke-linecap="round" stroke-linejoin="round"/>
<path d="M308.208 303.674H327.27" stroke="#263238" stroke-linecap="round" stroke-linejoin="round"/>
<path d="M293.912 303.674H304.868" stroke="#263238" stroke-linecap="round" stroke-linejoin="round"/>
<path d="M323.929 308.921H348.237" stroke="#263238" stroke-linecap="round" stroke-linejoin="round"/>
<path d="M293.912 308.921H319.645" stroke="#263238" stroke-linecap="round" stroke-linejoin="round"/>
<path d="M343.472 314.158H348.237" stroke="#263238" stroke-linecap="round" stroke-linejoin="round"/>
<path d="M316.786 314.158H339.66" stroke="#263238" stroke-linecap="round" stroke-linejoin="round"/>
<path d="M293.912 314.158H312.973" stroke="#263238" stroke-linecap="round" stroke-linejoin="round"/>
<path d="M331.554 318.452H348.237" stroke="#263238" stroke-linecap="round" stroke-linejoin="round"/>
<path d="M308.208 318.452H327.27" stroke="#263238" stroke-linecap="round" stroke-linejoin="round"/>
<path d="M293.912 318.452H304.868" stroke="#263238" stroke-linecap="round" stroke-linejoin="round"/>
<path d="M323.929 323.689H348.237" stroke="#263238" stroke-linecap="round" stroke-linejoin="round"/>
<path d="M293.912 323.689H319.645" stroke="#263238" stroke-linecap="round" stroke-linejoin="round"/>
<path d="M343.472 328.926H348.237" stroke="#263238" stroke-linecap="round" stroke-linejoin="round"/>
<path d="M316.786 328.926H339.66" stroke="#263238" stroke-linecap="round" stroke-linejoin="round"/>
<path d="M293.912 328.926H312.973" stroke="#263238" stroke-linecap="round" stroke-linejoin="round"/>
<path d="M390.841 21.0019H354.072C353.686 23.0383 352.603 24.8765 351.008 26.1999C349.413 27.5234 347.406 28.2492 345.334 28.2524H292.692C290.619 28.2492 288.613 27.5234 287.018 26.1999C285.423 24.8765 284.339 23.0383 283.954 21.0019H247.229C244.158 21.0019 241.213 22.2219 239.041 24.3934C236.869 26.565 235.649 29.5103 235.649 32.5814V343.445C235.649 346.516 236.869 349.462 239.041 351.633C241.213 353.805 244.158 355.025 247.229 355.025H390.841C393.912 355.025 396.857 353.805 399.029 351.633C401.2 349.462 402.42 346.516 402.42 343.445V32.5814C402.42 29.5103 401.2 26.565 399.029 24.3934C396.857 22.2219 393.912 21.0019 390.841 21.0019Z" stroke="#263238" stroke-width="2" stroke-linecap="round" stroke-linejoin="round"/>
<path d="M402.42 41.9785V32.5903C402.42 29.5192 401.2 26.5739 399.029 24.4023C396.857 22.2308 393.912 21.0108 390.841 21.0108H354.072C353.686 23.0472 352.603 24.8854 351.008 26.2088C349.413 27.5323 347.406 28.2581 345.334 28.2613H292.692C290.618 28.2577 288.61 27.5306 287.015 26.2054C285.42 24.8802 284.337 23.0399 283.954 21.0019H247.229C244.158 21.0019 241.213 22.2219 239.041 24.3934C236.869 26.565 235.649 29.5103 235.649 32.5814V41.9785H402.42Z" stroke="#263238" stroke-width="2" stroke-linecap="round" stroke-linejoin="round"/>
<path d="M250.925 29.3925C250.925 31.6728 248.36 32.4923 248.351 34.2292V34.345H250.836V35.1199H247.523V34.4697C247.523 32.0647 250.106 31.5481 250.106 29.3925C250.106 28.6087 249.848 28.199 249.215 28.199C248.583 28.199 248.324 28.6443 248.324 29.3124V29.9804H247.541V29.3925C247.541 28.2346 248.066 27.4686 249.233 27.4686C250.4 27.4686 250.925 28.2346 250.925 29.3925Z" fill="#263238"/>
<path d="M255.058 29.3925V29.5884C255.096 29.9082 255.03 30.2318 254.87 30.511C254.709 30.7902 254.463 31.0102 254.168 31.1383C254.466 31.2673 254.715 31.4901 254.876 31.7729C255.036 32.0558 255.1 32.3834 255.058 32.706V33.285C255.058 34.4429 254.515 35.2 253.357 35.2C252.199 35.2 251.656 34.4429 251.656 33.285V32.7683H252.448V33.3384C252.448 34.0243 252.725 34.434 253.339 34.434C253.954 34.434 254.23 34.0332 254.23 33.2671V32.6882C254.23 31.94 253.909 31.5837 253.277 31.557H252.778V30.8087H253.277C253.408 30.8106 253.537 30.7837 253.657 30.7298C253.776 30.6759 253.882 30.5963 253.967 30.4968C254.052 30.3973 254.114 30.2803 254.149 30.1541C254.183 30.0279 254.19 29.8956 254.168 29.7666V29.3925C254.168 28.6176 253.891 28.2167 253.277 28.2167C252.662 28.2167 252.386 28.6354 252.386 29.3212V29.7131H251.593V29.3925C251.593 28.2345 252.137 27.4863 253.295 27.4863C254.453 27.4863 255.058 28.2256 255.058 29.3925Z" fill="#263238"/>
<path d="M256.688 29.9537V31.0047H255.878V29.9537H256.688ZM256.688 34.0688V35.1199H255.878V34.0688H256.688Z" fill="#263238"/>
<path d="M258.399 30.6306C258.509 30.4327 258.673 30.2695 258.871 30.1593C259.069 30.0492 259.294 29.9965 259.521 30.0071C260.492 30.0071 260.928 30.7197 260.928 31.7886V33.2672C260.928 34.4251 260.376 35.1822 259.218 35.1822C258.06 35.1822 257.526 34.4251 257.526 33.2672V32.7595H258.309V33.3206C258.309 34.0065 258.594 34.4162 259.2 34.4162C259.806 34.4162 260.091 34.0065 260.091 33.3206V31.8687C260.091 31.1829 259.815 30.7731 259.2 30.7731C259.087 30.7619 258.973 30.7745 258.865 30.8102C258.758 30.8459 258.658 30.9038 258.574 30.9802C258.49 31.0567 258.424 31.1499 258.378 31.2538C258.332 31.3578 258.309 31.4702 258.309 31.5837V31.7529H257.517L257.722 27.5576H260.706V28.3147H258.479L258.399 30.6306Z" fill="#263238"/>
<path d="M265.123 29.3925V29.5261H264.357V29.3301C264.357 28.6532 264.072 28.2523 263.467 28.2523C262.861 28.2523 262.576 28.6621 262.576 29.4726V31.1739C262.663 30.9241 262.829 30.7096 263.05 30.5633C263.27 30.4169 263.532 30.3467 263.796 30.3634C264.767 30.3634 265.204 31.0581 265.204 32.1448V33.2849C265.204 34.4429 264.634 35.2 263.476 35.2C262.318 35.2 261.685 34.434 261.685 33.276V29.3925C261.685 28.19 262.22 27.4418 263.422 27.4418C264.625 27.4418 265.123 28.2167 265.123 29.3925ZM262.523 32.2161V33.3473C262.523 34.0332 262.808 34.4429 263.413 34.4429C264.019 34.4429 264.304 34.0332 264.304 33.3473V32.1983C264.304 31.5213 264.01 31.1116 263.413 31.1116C262.817 31.1116 262.523 31.5213 262.523 32.1983V32.2161Z" fill="#263238"/>
<path d="M358.481 29.7043H356.343V35.0397H358.481V29.7043Z" fill="#263238"/>
<path d="M361.331 28.6354H359.193V35.0398H361.331V28.6354Z" fill="#263238"/>
<path d="M364.173 27.8783H362.035V35.0397H364.173V27.8783Z" fill="#263238"/>
<path d="M367.023 26.5511H364.885V35.0397H367.023V26.5511Z" fill="#263238"/>
<path d="M393.433 34.8883H380.624V27.0677H393.433V34.8883ZM381.337 34.1847H392.72V27.7803H381.337V34.1847Z" fill="#263238"/>
<path d="M389.166 28.5552H382.406V33.4096H389.166V28.5552Z" fill="#263238"/>
<path d="M394.6 30.0605H392.988V31.9044H394.6V30.0605Z" fill="#263238"/>
<path d="M375.93 33.187C375.846 33.1885 375.763 33.1669 375.69 33.1246C373.08 31.5748 371.361 33.0088 371.289 33.0712C371.243 33.1183 371.187 33.1553 371.126 33.1799C371.065 33.2046 370.999 33.2163 370.933 33.2144C370.867 33.2124 370.802 33.1969 370.742 33.1687C370.682 33.1405 370.629 33.1003 370.585 33.0506C370.542 33.0009 370.509 32.9427 370.489 32.8797C370.468 32.8167 370.462 32.7503 370.468 32.6845C370.475 32.6187 370.495 32.555 370.528 32.4974C370.56 32.4398 370.604 32.3895 370.657 32.3497C370.746 32.2695 372.955 30.3812 376.179 32.2963C376.286 32.3642 376.362 32.4707 376.392 32.5936C376.422 32.7164 376.403 32.8461 376.34 32.9554C376.298 33.0265 376.238 33.0853 376.166 33.1259C376.094 33.1665 376.013 33.1876 375.93 33.187Z" fill="#263238"/>
<path d="M376.892 31.5838C376.807 31.5821 376.724 31.5575 376.652 31.5125C372.884 29.2768 370.345 31.4412 370.318 31.4591C370.272 31.5 370.217 31.5313 370.158 31.5512C370.1 31.5712 370.037 31.5793 369.975 31.5752C369.913 31.571 369.853 31.5547 369.797 31.5271C369.741 31.4996 369.691 31.4613 369.65 31.4145C369.61 31.3677 369.578 31.3133 369.558 31.2545C369.538 31.1956 369.53 31.1333 369.534 31.0713C369.539 31.0092 369.555 30.9486 369.582 30.8929C369.61 30.8372 369.648 30.7874 369.695 30.7465C369.695 30.7465 372.777 28.0743 377.141 30.693C377.25 30.7594 377.328 30.866 377.358 30.9895C377.388 31.113 377.368 31.2434 377.302 31.3522C377.259 31.4226 377.199 31.481 377.127 31.5215C377.055 31.5621 376.974 31.5835 376.892 31.5838Z" fill="#263238"/>
<path d="M377.774 29.722C377.686 29.7203 377.6 29.6957 377.524 29.6508C372.75 26.8183 369.579 29.4904 369.446 29.6062C369.349 29.6794 369.228 29.7132 369.107 29.7009C368.986 29.6885 368.874 29.6308 368.794 29.5394C368.714 29.4481 368.671 29.3298 368.675 29.2083C368.679 29.0869 368.728 28.9713 368.813 28.8847C368.858 28.8847 372.626 25.6247 378.014 28.8313C378.069 28.8634 378.116 28.906 378.154 28.9565C378.192 29.0071 378.22 29.0646 378.236 29.1258C378.251 29.187 378.255 29.2507 378.246 29.3133C378.237 29.3759 378.216 29.4361 378.184 29.4904C378.14 29.5603 378.08 29.6182 378.008 29.6587C377.937 29.6991 377.856 29.7209 377.774 29.722Z" fill="#263238"/>
<path d="M374.487 33.9887C374.489 34.2272 374.42 34.4609 374.288 34.66C374.157 34.8592 373.969 35.0147 373.749 35.1068C373.529 35.1989 373.286 35.2234 373.052 35.1773C372.818 35.1312 372.603 35.0165 372.434 34.8478C372.266 34.6791 372.151 34.464 372.105 34.2299C372.059 33.9959 372.083 33.7533 372.175 33.5333C372.268 33.3132 372.423 33.1255 372.622 32.994C372.821 32.8626 373.055 32.7933 373.294 32.7951C373.61 32.7951 373.914 32.9208 374.138 33.1447C374.361 33.3685 374.487 33.6721 374.487 33.9887Z" fill="#263238"/>
<path d="M389.059 369.214H407.765" stroke="#263238" stroke-linecap="round" stroke-linejoin="round"/>
<path d="M36.3312 369.214H382.824" stroke="#263238" stroke-linecap="round" stroke-linejoin="round"/>
<path d="M11.9698 369.214H24.7517" stroke="#263238" stroke-linecap="round" stroke-linejoin="round"/>
<path d="M140.261 249.26H126.651V367.548H140.261V249.26Z" fill="#263238" stroke="#263238" stroke-linecap="round" stroke-linejoin="round"/>
<path d="M32.3408 292.095V300.414H86.5861V292.095H32.3408Z" fill="#263238" stroke="#263238" stroke-linecap="round" stroke-linejoin="round"/>
<path d="M37.9166 263.378H29.5972V296.664H37.9166V263.378Z" fill="#263238" stroke="#263238" stroke-linecap="round" stroke-linejoin="round"/>
<path d="M41.3816 296.807C41.3816 297.808 41.1844 298.799 40.8011 299.723C40.4178 300.648 39.856 301.488 39.1479 302.195C38.4398 302.902 37.5992 303.463 36.6742 303.845C35.7491 304.228 34.7579 304.424 33.757 304.423C33.5076 304.423 33.2582 304.423 33.0177 304.423C31.6304 304.285 30.3072 303.771 29.1921 302.934C28.0769 302.097 27.2125 300.971 26.6928 299.677C26.1732 298.384 26.0181 296.972 26.2445 295.597C26.4709 294.221 27.0701 292.934 27.9769 291.875C28.8838 290.816 30.0636 290.026 31.388 289.591C32.7124 289.156 34.1308 289.092 35.489 289.407C36.8471 289.722 38.0929 290.403 39.091 291.376C40.0891 292.349 40.8013 293.578 41.15 294.927C41.3021 295.542 41.3799 296.173 41.3816 296.807Z" fill="white" stroke="#263238" stroke-linecap="round" stroke-linejoin="round"/>
<path d="M41.9428 268.508C41.938 270.528 41.1329 272.464 39.7038 273.891C38.2747 275.319 36.338 276.122 34.3181 276.124C34.0687 276.124 33.8193 276.124 33.5699 276.124C32.1819 275.991 30.8569 275.48 29.7392 274.646C28.6214 273.813 27.7537 272.689 27.2303 271.396C26.7069 270.104 26.548 268.693 26.7707 267.316C26.9935 265.94 27.5895 264.651 28.4938 263.589C29.3982 262.528 30.5762 261.735 31.8999 261.296C33.2235 260.858 34.642 260.791 36.0012 261.102C37.3603 261.414 38.6079 262.092 39.6084 263.064C40.6089 264.035 41.3238 265.262 41.6755 266.611C41.8466 267.229 41.9365 267.867 41.9428 268.508Z" fill="white" stroke="#263238" stroke-linecap="round" stroke-linejoin="round"/>
<path d="M55.5949 247.843L44.5054 253.814L46.8026 258.081L57.8921 252.11L55.5949 247.843Z" fill="#263238" stroke="#263238" stroke-linecap="round" stroke-linejoin="round"/>
<path d="M59.7306 252.573L54.2705 255.513L50.7788 249.037L56.2479 246.089C56.677 245.853 57.1488 245.706 57.6356 245.656C58.1224 245.606 58.6144 245.654 59.0825 245.797C59.5506 245.939 59.9854 246.174 60.3613 246.487C60.7373 246.801 61.0468 247.186 61.2716 247.621C61.7185 248.483 61.8074 249.486 61.5189 250.414C61.2304 251.341 60.5878 252.117 59.7306 252.573Z" fill="white" stroke="#263238" stroke-linecap="round" stroke-linejoin="round"/>
<path d="M35.7968 225.112L35.4048 247.701L30.5682 247.621L30.9512 225.032L35.7968 225.112Z" fill="#263238" stroke="#263238" stroke-linecap="round" stroke-linejoin="round"/>
<path d="M37.1061 223.749L37.0082 229.984L29.6508 229.806L29.7487 223.571C29.7569 223.088 29.8601 222.611 30.0525 222.168C30.2449 221.725 30.5227 221.324 30.8701 220.988C31.2175 220.652 31.6277 220.388 32.0772 220.211C32.5267 220.034 33.0067 219.947 33.4898 219.955C33.9779 219.962 34.4597 220.066 34.907 220.261C35.3544 220.456 35.7583 220.739 36.095 221.092C36.4318 221.446 36.6947 221.863 36.8683 222.319C37.0419 222.775 37.1228 223.261 37.1061 223.749Z" fill="white" stroke="#263238" stroke-linecap="round" stroke-linejoin="round"/>
<path d="M53.8964 233.307L43.27 253.241L38.9945 250.97L49.612 231.035L53.8964 233.307Z" fill="#263238" stroke="#263238" stroke-linecap="round" stroke-linejoin="round"/>
<path d="M55.6778 232.692L52.7651 238.17L46.2717 234.723L49.1754 229.236C49.6348 228.377 50.4153 227.735 51.3465 227.45C52.2777 227.165 53.284 227.259 54.1457 227.713C55.0084 228.171 55.6542 228.952 55.9414 229.886C56.2286 230.819 56.1338 231.829 55.6778 232.692Z" fill="white" stroke="#263238" stroke-linecap="round" stroke-linejoin="round"/>
<path d="M18.6236 233.218L29.152 253.206L24.8676 255.468L14.3392 235.48L18.6236 233.218Z" fill="#263238" stroke="#263238" stroke-linecap="round" stroke-linejoin="round"/>
<path d="M28.5017 247.71C28.3455 246.785 27.9187 245.928 27.2751 245.246C26.6314 244.564 25.8 244.089 24.8861 243.88C23.9721 243.671 23.0166 243.737 22.1406 244.072C21.2645 244.406 20.5073 244.992 19.9647 245.757C19.4221 246.521 19.1185 247.43 19.0924 248.367C19.0662 249.304 19.3187 250.228 19.8179 251.022C20.317 251.816 21.0404 252.443 21.8965 252.826C22.7525 253.208 23.7028 253.328 24.627 253.17C25.8643 252.959 26.9673 252.265 27.6937 251.241C28.4201 250.218 28.7107 248.948 28.5017 247.71Z" fill="white" stroke="#263238" stroke-linecap="round" stroke-linejoin="round"/>
<path d="M33.1334 248.333C35.7505 248.333 37.8721 246.212 37.8721 243.595C37.8721 240.978 35.7505 238.856 33.1334 238.856C30.5164 238.856 28.3948 240.978 28.3948 243.595C28.3948 246.212 30.5164 248.333 33.1334 248.333Z" fill="white" stroke="#263238" stroke-linecap="round" stroke-linejoin="round"/>
<path d="M48.5965 246.329C48.7391 245.403 48.6036 244.455 48.2072 243.605C47.8109 242.755 47.1714 242.042 46.3698 241.556C45.5681 241.07 44.6403 240.833 43.7037 240.874C42.7671 240.916 41.8638 241.234 41.1082 241.789C40.3525 242.344 39.7785 243.11 39.4586 243.992C39.1387 244.873 39.0875 245.829 39.3113 246.74C39.535 247.65 40.0239 248.474 40.7158 249.106C41.4078 249.739 42.2719 250.152 43.1986 250.293C43.8134 250.388 44.4409 250.361 45.0451 250.213C45.6493 250.065 46.2184 249.799 46.7198 249.431C47.2212 249.063 47.6451 248.599 47.9671 248.067C48.2891 247.535 48.503 246.944 48.5965 246.329Z" fill="white" stroke="#263238" stroke-linecap="round" stroke-linejoin="round"/>
<path d="M19.1134 231.392L22.0172 236.879L15.5149 240.326L12.6111 234.83C12.3843 234.403 12.244 233.936 12.1983 233.455C12.1526 232.974 12.2023 232.488 12.3446 232.027C12.487 231.565 12.7192 231.136 13.0278 230.764C13.3364 230.392 13.7155 230.085 14.1432 229.86C15.006 229.406 16.0131 229.313 16.9444 229.6C17.8757 229.887 18.6556 230.531 19.1134 231.392Z" fill="white" stroke="#263238" stroke-linecap="round" stroke-linejoin="round"/>
<path d="M47.688 256.858C47.688 260.401 46.2804 263.8 43.7747 266.305C41.2691 268.811 37.8707 270.219 34.3271 270.219C33.8818 270.219 33.4364 270.219 33.0177 270.165C30.5873 269.924 28.2694 269.022 26.3159 267.556C24.3625 266.09 22.8483 264.116 21.9378 261.85C21.0274 259.584 20.7556 257.111 21.152 254.701C21.5483 252.291 22.5977 250.036 24.186 248.181C25.7744 246.325 27.8409 244.941 30.1609 244.177C32.481 243.414 34.9659 243.302 37.3455 243.852C39.7251 244.402 41.9083 245.594 43.658 247.298C45.4076 249.002 46.6567 251.153 47.2694 253.517C47.5456 254.609 47.6862 255.731 47.688 256.858Z" fill="white" stroke="#263238" stroke-linecap="round" stroke-linejoin="round"/>
<path d="M47.6879 256.858C47.6879 260.401 46.2803 263.8 43.7746 266.305C41.2689 268.811 37.8705 270.219 34.327 270.219C33.8816 270.219 33.4363 270.219 33.0176 270.165C32.5058 268.188 32.4538 266.12 32.8658 264.12C33.2778 262.12 34.1428 260.241 35.3943 258.628C36.6458 257.014 38.2505 255.709 40.0852 254.812C41.9199 253.915 43.9357 253.451 45.9777 253.455C46.4142 253.455 46.8685 253.455 47.2871 253.517C47.5573 254.61 47.692 255.732 47.6879 256.858Z" fill="white" stroke="#263238" stroke-linecap="round" stroke-linejoin="round"/>
<path d="M114.965 297.048C117.234 287.353 111.214 277.654 101.519 275.386C91.8239 273.117 82.1256 279.138 79.857 288.832C77.5885 298.527 83.6087 308.226 93.3036 310.494C102.998 312.763 112.697 306.743 114.965 297.048Z" fill="white" stroke="#263238" stroke-linecap="round" stroke-linejoin="round"/>
<path d="M100.761 301.002C105.215 299.144 107.319 294.028 105.462 289.574C103.604 285.12 98.4875 283.015 94.0334 284.873C89.5794 286.73 87.4747 291.847 89.3324 296.301C91.19 300.755 96.3067 302.86 100.761 301.002Z" fill="#263238" stroke="#263238" stroke-linecap="round" stroke-linejoin="round"/>
<path d="M94.3086 369.214H174.296L175.445 363.798C175.906 361.635 175.492 359.377 174.294 357.518C173.095 355.659 171.21 354.35 169.05 353.876C157.711 351.328 133.162 350.411 133.162 350.411C127.248 350.598 110.787 351.301 99.4481 353.885C97.3027 354.374 95.4363 355.689 94.2528 357.544C93.0693 359.4 92.6637 361.646 93.1239 363.798L94.3086 369.214Z" fill="white" stroke="#263238" stroke-linecap="round" stroke-linejoin="round"/>
<path d="M153.551 351.729C143.308 350.785 133.189 350.411 133.189 350.411C129.466 350.527 121.556 350.856 113.379 351.729C115.766 359.879 123.854 365.883 133.465 365.883C143.076 365.883 151.164 359.852 153.551 351.729Z" fill="#92E3A9" stroke="#263238" stroke-linecap="round" stroke-linejoin="round"/>
<path d="M217.009 331.021L221.985 324.353L178.509 291.912L173.534 298.58L217.009 331.021Z" fill="#263238" stroke="#263238" stroke-linecap="round" stroke-linejoin="round"/>
<path d="M195.374 350.704L202.042 355.68L221.949 329.002L215.281 324.026L195.374 350.704Z" fill="#263238" stroke="#263238" stroke-linecap="round" stroke-linejoin="round"/>
<path d="M212.58 321.836C213.179 321.032 213.932 320.354 214.794 319.841C215.655 319.328 216.61 318.99 217.603 318.846C218.595 318.702 219.607 318.755 220.579 319.002C221.551 319.25 222.465 319.686 223.268 320.286L223.847 320.758C224.877 321.698 225.63 322.902 226.024 324.24C226.417 325.577 226.436 326.997 226.079 328.345C225.722 329.693 225.002 330.917 223.998 331.884C222.993 332.851 221.743 333.524 220.383 333.83C219.022 334.136 217.604 334.064 216.282 333.62C214.96 333.176 213.786 332.378 212.886 331.313C211.986 330.249 211.395 328.957 211.178 327.58C210.96 326.203 211.125 324.792 211.653 323.502C211.892 322.911 212.203 322.351 212.58 321.836Z" fill="white" stroke="#263238" stroke-linecap="round" stroke-linejoin="round"/>
<path d="M195.184 343.151C196.313 341.474 198.062 340.314 200.047 339.927C202.031 339.539 204.088 339.956 205.765 341.085C205.97 341.219 206.166 341.37 206.362 341.521C207.438 342.409 208.249 343.575 208.708 344.891C209.167 346.208 209.257 347.625 208.966 348.989C208.676 350.353 208.017 351.611 207.062 352.627C206.106 353.642 204.89 354.376 203.547 354.749C202.203 355.122 200.783 355.119 199.441 354.74C198.098 354.362 196.886 353.623 195.934 352.604C194.983 351.584 194.329 350.323 194.045 348.958C193.76 347.593 193.855 346.176 194.32 344.862C194.535 344.258 194.826 343.683 195.184 343.151Z" fill="white" stroke="#263238" stroke-linecap="round" stroke-linejoin="round"/>
<path d="M172.288 352.694L184.823 353.925L185.296 349.103L172.762 347.872L172.288 352.694Z" fill="#263238" stroke="#263238" stroke-linecap="round" stroke-linejoin="round"/>
<path d="M171.526 346.492L177.708 347.097L176.986 354.419L170.804 353.813C169.834 353.719 168.94 353.242 168.32 352.489C167.701 351.736 167.405 350.767 167.5 349.796C167.597 348.825 168.075 347.931 168.83 347.312C169.584 346.692 170.554 346.397 171.526 346.492Z" fill="white" stroke="#263238" stroke-linecap="round" stroke-linejoin="round"/>
<path d="M183.907 349.609C184.886 348.15 186.143 346.899 187.606 345.926C189.07 344.954 190.71 344.279 192.435 343.942C194.159 343.604 195.933 343.61 197.655 343.959C199.377 344.308 201.013 344.993 202.47 345.975C202.835 346.224 203.182 346.483 203.521 346.759C205.404 348.315 206.824 350.358 207.628 352.665C208.431 354.972 208.586 357.455 208.077 359.845C207.567 362.234 206.412 364.438 204.738 366.216C203.063 367.995 200.933 369.281 198.579 369.933C196.225 370.586 193.737 370.581 191.385 369.918C189.034 369.255 186.909 367.961 185.242 366.175C183.575 364.389 182.43 362.18 181.931 359.789C181.431 357.397 181.597 354.915 182.411 352.611C182.779 351.551 183.282 350.542 183.907 349.609Z" fill="white" stroke="#263238" stroke-linecap="round" stroke-linejoin="round"/>
<path d="M169.513 363.487L186.08 351.097L188.744 354.651L172.176 367.032L169.513 363.487Z" fill="#263238" stroke="#263238" stroke-linecap="round" stroke-linejoin="round"/>
<path d="M167.794 363.3L172.345 359.853L176.389 365.197L171.838 368.608C171.123 369.143 170.225 369.372 169.341 369.245C168.458 369.118 167.661 368.646 167.126 367.931C166.612 367.224 166.395 366.345 166.52 365.48C166.645 364.615 167.102 363.833 167.794 363.3Z" fill="white" stroke="#263238" stroke-linecap="round" stroke-linejoin="round"/>
<path d="M190.908 354.918C191.119 354.003 191.053 353.046 190.719 352.169C190.385 351.292 189.798 350.534 189.032 349.99C188.266 349.447 187.357 349.144 186.419 349.118C185.48 349.093 184.555 349.347 183.762 349.848C182.968 350.348 182.34 351.074 181.959 351.932C181.578 352.789 181.461 353.741 181.621 354.666C181.782 355.591 182.214 356.447 182.862 357.126C183.509 357.805 184.345 358.277 185.261 358.481C186.482 358.752 187.761 358.53 188.819 357.863C189.876 357.195 190.628 356.137 190.908 354.918Z" fill="white" stroke="#263238" stroke-linecap="round" stroke-linejoin="round"/>
<path d="M199.691 375.939L202.149 358.944L205.792 359.461L203.343 376.456L199.691 375.939Z" fill="#263238" stroke="#263238" stroke-linecap="round" stroke-linejoin="round"/>
<path d="M198.577 376.839L199.245 372.162L204.777 372.955L204.109 377.623C204.057 377.986 203.935 378.337 203.748 378.653C203.561 378.969 203.314 379.246 203.02 379.467C202.727 379.688 202.392 379.849 202.037 379.94C201.681 380.032 201.31 380.052 200.947 380.001C200.213 379.895 199.552 379.503 199.108 378.91C198.664 378.317 198.473 377.572 198.577 376.839Z" fill="white" stroke="#263238" stroke-linecap="round" stroke-linejoin="round"/>
<path d="M207.217 358.347C206.798 357.694 206.194 357.179 205.483 356.869C204.771 356.558 203.983 356.465 203.219 356.602C202.455 356.739 201.748 357.099 201.189 357.637C200.629 358.176 200.241 358.868 200.075 359.626C199.908 360.384 199.97 361.175 200.253 361.898C200.535 362.621 201.026 363.245 201.662 363.689C202.299 364.134 203.053 364.38 203.829 364.396C204.605 364.412 205.369 364.198 206.024 363.781C206.902 363.218 207.521 362.329 207.744 361.311C207.968 360.292 207.779 359.226 207.217 358.347Z" fill="white" stroke="#263238" stroke-linecap="round" stroke-linejoin="round"/>
<path d="M183.292 373.677L194.337 356.183L198.087 358.534L187.051 376.037L183.292 373.677Z" fill="#263238" stroke="#263238" stroke-linecap="round" stroke-linejoin="round"/>
<path d="M181.627 374.104L184.646 369.294L190.356 372.857L187.327 377.676C186.851 378.43 186.095 378.964 185.226 379.163C184.356 379.362 183.443 379.208 182.687 378.736C181.933 378.261 181.399 377.507 181.2 376.639C181.002 375.771 181.155 374.859 181.627 374.104Z" fill="white" stroke="#263238" stroke-linecap="round" stroke-linejoin="round"/>
<path d="M200.225 358.018C200.093 357.09 199.688 356.223 199.063 355.525C198.437 354.828 197.618 354.332 196.71 354.101C195.802 353.87 194.846 353.913 193.963 354.226C193.08 354.539 192.309 355.107 191.75 355.859C191.19 356.61 190.866 357.511 190.819 358.446C190.772 359.382 191.004 360.311 191.485 361.115C191.966 361.918 192.676 362.561 193.523 362.961C194.37 363.361 195.317 363.501 196.244 363.362C197.479 363.179 198.592 362.514 199.338 361.512C200.085 360.511 200.404 359.254 200.225 358.018Z" fill="white" stroke="#263238" stroke-linecap="round" stroke-linejoin="round"/>
<path d="M179.763 308.412C188.136 303.023 190.554 291.867 185.164 283.495C179.775 275.123 168.619 272.705 160.247 278.094C151.875 283.483 149.457 294.639 154.846 303.011C160.235 311.383 171.391 313.801 179.763 308.412Z" fill="white" stroke="#263238" stroke-linecap="round" stroke-linejoin="round"/>
<path d="M177.955 296.903C179.967 292.516 178.042 287.329 173.656 285.317C169.269 283.305 164.082 285.23 162.07 289.616C160.058 294.003 161.983 299.19 166.37 301.202C170.756 303.214 175.943 301.289 177.955 296.903Z" fill="#263238" stroke="#263238" stroke-linecap="round" stroke-linejoin="round"/>
<path d="M133.456 257.526C149.449 257.526 162.414 244.561 162.414 228.568C162.414 212.575 149.449 199.611 133.456 199.611C117.463 199.611 104.499 212.575 104.499 228.568C104.499 244.561 117.463 257.526 133.456 257.526Z" fill="#92E3A9" stroke="#263238" stroke-linecap="round" stroke-linejoin="round"/>
<path d="M174.857 247.852C181.076 240.056 184.968 230.662 186.085 220.751C187.203 210.841 185.5 200.816 181.173 191.831C176.846 182.845 170.071 175.263 161.627 169.957C153.182 164.65 143.412 161.835 133.438 161.835C123.465 161.835 113.694 164.65 105.25 169.957C96.8056 175.263 90.0304 182.845 85.7035 191.831C81.3767 200.816 79.6741 210.841 80.7914 220.751C81.9087 230.662 85.8006 240.056 92.0195 247.852H174.857Z" fill="white" stroke="#263238" stroke-linecap="round" stroke-linejoin="round"/>
<path d="M165.861 194.818H99.7154C95.6914 194.818 92.4293 198.081 92.4293 202.105V225.549C92.4293 229.573 95.6914 232.835 99.7154 232.835H165.861C169.885 232.835 173.147 229.573 173.147 225.549V202.105C173.147 198.081 169.885 194.818 165.861 194.818Z" fill="#92E3A9" stroke="#263238" stroke-linecap="round" stroke-linejoin="round"/>
<path d="M101.158 212.286C102.033 209.836 103.628 207.708 105.732 206.181C107.837 204.653 110.355 203.797 112.955 203.725C115.555 203.653 118.116 204.368 120.302 205.776C122.489 207.185 124.199 209.221 125.208 211.618" stroke="#263238" stroke-width="5" stroke-linecap="round" stroke-linejoin="round"/>
<path d="M141.054 212.286C141.929 209.836 143.523 207.708 145.628 206.181C147.733 204.653 150.25 203.797 152.85 203.725C155.45 203.653 158.011 204.368 160.198 205.776C162.384 207.185 164.094 209.221 165.104 211.618" stroke="#263238" stroke-width="5" stroke-linecap="round" stroke-linejoin="round"/>
<path d="M126.473 221.095C126.696 222.861 127.557 224.485 128.892 225.663C130.228 226.84 131.947 227.489 133.728 227.489C135.508 227.489 137.227 226.84 138.563 225.663C139.899 224.485 140.759 222.861 140.983 221.095H126.473Z" fill="white" stroke="#263238" stroke-linecap="round" stroke-linejoin="round"/>
<path d="M202.007 224.106C200.537 224.106 199.128 223.522 198.089 222.483C197.05 221.444 196.466 220.035 196.466 218.565V205.962C196.465 205.233 196.608 204.512 196.885 203.839C197.163 203.165 197.571 202.554 198.086 202.038C198.6 201.523 199.212 201.114 199.884 200.835C200.557 200.556 201.278 200.412 202.007 200.412C202.735 200.411 203.456 200.554 204.13 200.831C204.803 201.109 205.415 201.517 205.93 202.032C206.445 202.546 206.854 203.158 207.133 203.83C207.412 204.503 207.556 205.224 207.556 205.953V218.556C207.557 219.285 207.414 220.008 207.136 220.681C206.857 221.355 206.449 221.967 205.933 222.483C205.418 222.998 204.805 223.407 204.132 223.686C203.458 223.964 202.736 224.107 202.007 224.106Z" fill="#263238" stroke="#263238" stroke-linecap="round" stroke-linejoin="round"/>
<path d="M63.3915 224.106C62.6632 224.107 61.9418 223.964 61.2686 223.686C60.5954 223.409 59.9836 223.001 59.4682 222.486C58.9527 221.972 58.5439 221.36 58.2649 220.688C57.9859 220.015 57.8423 219.294 57.8423 218.565V205.962C57.8411 205.232 57.9839 204.51 58.2623 203.837C58.5408 203.163 58.9495 202.551 59.465 202.035C59.9805 201.519 60.5927 201.111 61.2665 200.832C61.9403 200.554 62.6625 200.411 63.3915 200.412C64.1191 200.412 64.8395 200.556 65.5117 200.834C66.1839 201.112 66.7947 201.521 67.3091 202.035C67.8236 202.55 68.2317 203.16 68.5101 203.832C68.7885 204.505 68.9318 205.225 68.9318 205.953V218.556C68.933 219.285 68.7906 220.006 68.5127 220.679C68.2348 221.353 67.8269 221.964 67.3123 222.48C66.7977 222.995 66.1865 223.404 65.5138 223.683C64.841 223.962 64.1198 224.106 63.3915 224.106Z" fill="#263238" stroke="#263238" stroke-linecap="round" stroke-linejoin="round"/>
<path d="M81.1526 167.233C76.252 174.474 73.6391 183.02 73.6527 191.763V200.92" stroke="#263238" stroke-width="14" stroke-linecap="round" stroke-linejoin="round"/>
<path d="M186.33 167.268C182.319 161.293 176.9 156.397 170.549 153.012C164.199 149.627 157.113 147.858 149.917 147.859H117.539C110.353 147.854 103.275 149.616 96.9304 152.99C90.5853 156.364 85.1671 161.245 81.1526 167.206" stroke="#263238" stroke-width="7" stroke-linecap="round" stroke-linejoin="round"/>
<path d="M193.794 200.92V191.763C193.808 183.036 191.208 174.505 186.33 167.268" stroke="#263238" stroke-width="14" stroke-linecap="round" stroke-linejoin="round"/>
<path d="M78.0707 191.06H70.642C66.3425 191.06 62.8571 194.545 62.8571 198.845V224.578C62.8571 228.877 66.3425 232.363 70.642 232.363H78.0707C82.3702 232.363 85.8556 228.877 85.8556 224.578V198.845C85.8556 194.545 82.3702 191.06 78.0707 191.06Z" fill="white" stroke="#263238" stroke-linecap="round" stroke-linejoin="round"/>
<path d="M75.5321 191.06H73.1895V232.363H75.5321V191.06Z" fill="#92E3A9" stroke="#263238" stroke-linecap="round" stroke-linejoin="round"/>
<path d="M195.397 191.06H187.969C183.669 191.06 180.184 194.545 180.184 198.845V224.578C180.184 228.877 183.669 232.363 187.969 232.363H195.397C199.697 232.363 203.182 228.877 203.182 224.578V198.845C203.182 194.545 199.697 191.06 195.397 191.06Z" fill="white" stroke="#263238" stroke-linecap="round" stroke-linejoin="round"/>
<path d="M192.859 191.06H190.516V232.363H192.859V191.06Z" fill="#92E3A9" stroke="#263238" stroke-linecap="round" stroke-linejoin="round"/>
<path d="M133.643 187.31C137.701 187.311 141.694 186.295 145.259 184.357C148.823 182.418 151.845 179.618 154.05 176.211L159.073 168.435C151.113 164.039 142.154 161.766 133.061 161.837C123.967 161.907 115.045 164.317 107.153 168.836L114.715 178.224C116.99 181.057 119.872 183.344 123.147 184.917C126.423 186.489 130.01 187.307 133.643 187.31Z" fill="#92E3A9" stroke="#263238" stroke-linecap="round" stroke-linejoin="round"/>
<path d="M134.899 236.683C134.899 236.507 134.847 236.334 134.749 236.188C134.651 236.041 134.512 235.927 134.349 235.86C134.187 235.792 134.007 235.775 133.835 235.809C133.662 235.843 133.503 235.928 133.379 236.053C133.254 236.177 133.169 236.336 133.135 236.509C133.1 236.682 133.118 236.861 133.185 237.024C133.253 237.186 133.367 237.325 133.514 237.423C133.66 237.521 133.832 237.573 134.008 237.573C134.245 237.573 134.471 237.48 134.638 237.313C134.805 237.145 134.899 236.919 134.899 236.683Z" fill="#263238"/>
<path d="M134.899 239.676C134.899 239.499 134.847 239.327 134.749 239.181C134.651 239.034 134.512 238.92 134.349 238.853C134.187 238.785 134.007 238.768 133.835 238.802C133.662 238.836 133.503 238.921 133.379 239.046C133.254 239.17 133.169 239.329 133.135 239.502C133.1 239.675 133.118 239.854 133.185 240.016C133.253 240.179 133.367 240.318 133.514 240.416C133.66 240.514 133.832 240.566 134.008 240.566C134.245 240.566 134.471 240.472 134.638 240.305C134.805 240.138 134.899 239.912 134.899 239.676Z" fill="#263238"/>
<path d="M131.506 239.212C131.668 239.107 131.792 238.952 131.859 238.77C131.925 238.589 131.931 238.39 131.875 238.205C131.818 238.019 131.703 237.858 131.546 237.744C131.39 237.63 131.2 237.57 131.007 237.573C130.844 237.678 130.72 237.834 130.653 238.015C130.587 238.197 130.581 238.396 130.638 238.581C130.694 238.766 130.809 238.928 130.966 239.042C131.122 239.156 131.312 239.216 131.506 239.212Z" fill="#263238"/>
<path d="M136.859 239.212C136.997 239.21 137.132 239.176 137.254 239.112C137.376 239.048 137.482 238.957 137.563 238.846C137.644 238.734 137.699 238.605 137.721 238.47C137.744 238.334 137.735 238.194 137.695 238.062C137.655 237.931 137.585 237.81 137.49 237.71C137.395 237.61 137.279 237.533 137.149 237.485C137.02 237.438 136.881 237.421 136.744 237.437C136.607 237.452 136.476 237.499 136.36 237.573C136.222 237.576 136.087 237.61 135.964 237.674C135.842 237.737 135.736 237.829 135.655 237.94C135.574 238.052 135.52 238.18 135.497 238.316C135.474 238.452 135.483 238.591 135.524 238.723C135.564 238.855 135.634 238.976 135.729 239.076C135.823 239.176 135.94 239.253 136.069 239.3C136.199 239.348 136.337 239.365 136.474 239.349C136.611 239.334 136.743 239.287 136.859 239.212Z" fill="#263238"/>
<path d="M169.05 270.103C157.711 267.546 133.162 266.629 133.162 266.629C127.248 266.816 110.787 267.52 99.4481 270.112C97.3015 270.599 95.4336 271.914 94.2497 273.77C93.0658 275.625 92.6613 277.873 93.1239 280.025L103.626 329.158C104.142 331.54 105.456 333.675 107.352 335.207C109.247 336.74 111.61 337.579 114.047 337.584H154.531C156.968 337.579 159.331 336.74 161.226 335.207C163.122 333.675 164.436 331.54 164.952 329.158L175.445 280.025C175.906 277.862 175.492 275.604 174.294 273.745C173.095 271.886 171.21 270.577 169.05 270.103Z" fill="white" stroke="#263238" stroke-linecap="round" stroke-linejoin="round"/>
<path d="M163.883 269.159C151.582 267.324 133.189 266.629 133.189 266.629C124.183 266.887 115.197 267.63 106.271 268.856L118.171 337.584H150.514L163.883 269.159Z" fill="#92E3A9" stroke="#263238" stroke-linecap="round" stroke-linejoin="round"/>
<path d="M143.806 281.566H124.104C120.079 281.566 116.817 284.829 116.817 288.853V298.472C116.817 302.497 120.079 305.759 124.104 305.759H143.806C147.83 305.759 151.093 302.497 151.093 298.472V288.853C151.093 284.829 147.83 281.566 143.806 281.566Z" fill="white" stroke="#263238" stroke-linecap="round" stroke-linejoin="round"/>
<path d="M128.201 291.534H122.652V297.083H128.201V291.534Z" fill="white" stroke="#263238" stroke-linecap="round" stroke-linejoin="round"/>
<path d="M136.725 291.534H131.176V297.083H136.725V291.534Z" fill="white" stroke="#263238" stroke-linecap="round" stroke-linejoin="round"/>
<path d="M145.258 291.534H139.709V297.083H145.258V291.534Z" fill="white" stroke="#263238" stroke-linecap="round" stroke-linejoin="round"/>
<path d="M55.9807 322.05H154.709C155.89 322.05 157.023 322.519 157.858 323.354C158.693 324.19 159.163 325.323 159.163 326.504V381.969H51.527V326.504C51.527 325.323 51.9963 324.19 52.8315 323.354C53.6667 322.519 54.7995 322.05 55.9807 322.05Z" fill="white" stroke="#263238" stroke-linecap="round" stroke-linejoin="round"/>
<path d="M159.163 341.985C145.641 345.414 131.764 354.143 105.906 366.435C80.9656 378.3 60.5501 378.095 51.527 377.177V381.969H159.163V341.985Z" fill="#263238" stroke="#263238" stroke-linecap="round" stroke-linejoin="round"/>
<path d="M159.163 378.647H51.527V381.978H159.163V378.647Z" fill="white" stroke="#263238" stroke-linecap="round" stroke-linejoin="round"/>
<path d="M110.894 352.014C110.894 353.112 110.569 354.185 109.959 355.097C109.349 356.01 108.482 356.721 107.468 357.141C106.455 357.561 105.339 357.671 104.262 357.457C103.186 357.243 102.197 356.714 101.421 355.938C100.645 355.162 100.116 354.173 99.9023 353.097C99.6882 352.02 99.7981 350.905 100.218 349.891C100.638 348.877 101.349 348.01 102.262 347.4C103.174 346.79 104.247 346.465 105.345 346.465C106.817 346.465 108.228 347.05 109.269 348.09C110.309 349.131 110.894 350.542 110.894 352.014Z" fill="white" stroke="#263238" stroke-linecap="round" stroke-linejoin="round"/>
</svg>
